<svg version="1.1" id="Layer_1" xmlns="http://www.w3.org/2000/svg" xmlns:xlink="http://www.w3.org/1999/xlink" x="0" y="0" viewBox="0 0 120 120" xml:space="preserve"><defs><path id="SVGID_1_" d="M18.6 18.6h82.7v82.7H18.6z"/></defs><clipPath id="SVGID_2_"><use xlink:href="#SVGID_1_" overflow="visible"/></clipPath><path clip-path="url(#SVGID_2_)" d="M88.3 29.8c16.7 15.6 17.5 41.8 1.9 58.5-15.6 16.7-41.8 17.5-58.5 1.9C15 74.6 14.2 48.4 29.8 31.7 45.4 15 71.6 14.2 88.3 29.8"/><path clip-path="url(#SVGID_2_)" fill="#ED1C24" d="M56.7 78.8c0 3.4 2.2 5.3 5.1 5.3 2.9 0 5.1-1.9 5.1-5.3V40.2c0-2.7-1.6-4.8-4.5-4.8h-9.6c-2.9 0-4.6 2.3-4.6 4.7 0 2.3 1.4 4.7 4.6 4.7h4v34z"/></svg>