<svg version="1.1" id="Layer_1" xmlns="http://www.w3.org/2000/svg" xmlns:xlink="http://www.w3.org/1999/xlink" x="0" y="0" viewBox="0 0 120 120" xml:space="preserve"><defs><path id="SVGID_1_" d="M18.6 18.6h82.7v82.7H18.6z"/></defs><clipPath id="SVGID_2_"><use xlink:href="#SVGID_1_" overflow="visible"/></clipPath><path clip-path="url(#SVGID_2_)" fill="#FFF" d="M88.3 29.8c16.7 15.6 17.5 41.8 1.9 58.5-15.6 16.7-41.8 17.5-58.5 1.9C15 74.6 14.2 48.4 29.8 31.7 45.4 15 71.6 14.2 88.3 29.8"/><path clip-path="url(#SVGID_2_)" fill="#ED1C24" d="M57.6 74.8c5.8-7.3 16.3-16.6 16.3-26 0-8.6-6.7-14.1-15-14.1S43 41.5 43 50.1c0 2.6 1.7 4.9 4.9 4.9 6.5 0 2.8-11 10.6-11 2.8 0 4.9 2.4 4.9 5.2 0 2.4-1.2 4.5-2.4 6.3-5.2 7.5-11.3 13.6-16.9 20.4-.7.8-1.6 2-1.6 3.5 0 3.1 2.3 4.5 5.3 4.5h22.6c2.6 0 4.9-1.4 4.9-4.5S73 74.9 70 74.9H57.6z"/></svg>