<svg version="1.1" id="Layer_1" xmlns="http://www.w3.org/2000/svg" xmlns:xlink="http://www.w3.org/1999/xlink" x="0" y="0" viewBox="0 0 120 120" xml:space="preserve"><defs><path id="SVGID_1_" d="M10 35.1h100V85H10z"/></defs><clipPath id="SVGID_2_"><use xlink:href="#SVGID_1_" overflow="visible"/></clipPath><path clip-path="url(#SVGID_2_)" fill="#FFF" d="M56.5 79.7c0 3.4 2.2 5.3 5.1 5.3 2.9 0 5.1-1.9 5.1-5.3V40.8c0-2.7-1.6-4.8-4.6-4.8h-9.7c-2.9 0-4.6 2.3-4.6 4.7 0 2.3 1.4 4.7 4.6 4.7h4v34.3zm-31.3-4.1c5.8-7.3 16.4-16.7 16.4-26.2 0-8.7-6.8-14.2-15.2-14.2-8.4 0-16.1 6.9-16.1 15.5 0 2.7 1.7 5 5 5 6.6 0 2.8-11.1 10.7-11.1 2.8 0 4.9 2.5 4.9 5.3 0 2.5-1.2 4.6-2.4 6.4-5.2 7.5-11.3 13.7-17 20.4-.7.8-1.6 2-1.6 3.5 0 3.1 2.3 4.5 5.3 4.5H38c2.6 0 4.9-1.4 4.9-4.5s-2.3-4.5-5.3-4.5H25.2z"/><path clip-path="url(#SVGID_2_)" fill="#ED1C24" d="M87.8 56h-9.9c-2.5 0-4.1 1.6-4.1 4.1s1.6 4.1 4.1 4.1h9.9v9.9c0 2.5 1.6 4.1 4.1 4.1 2.5 0 4.1-1.6 4.1-4.1v-9.9h9.9c2.5 0 4.1-1.6 4.1-4.1s-1.6-4.1-4.1-4.1H96v-9.9c0-2.5-1.6-4.1-4.1-4.1-2.5 0-4.1 1.6-4.1 4.1V56z"/></svg>