<svg version="1.1" id="Layer_1" xmlns="http://www.w3.org/2000/svg" xmlns:xlink="http://www.w3.org/1999/xlink" x="0" y="0" viewBox="0 0 120 120" xml:space="preserve"><defs><path id="SVGID_1_" d="M8 24.3h102.8V95H8z"/></defs><clipPath id="SVGID_2_"><use xlink:href="#SVGID_1_" overflow="visible"/></clipPath><path clip-path="url(#SVGID_2_)" fill="#FFF" d="M59.4 30.3H17.3c-1.7.1-3 1.3-3.3 3-.1.5-.1.9-.1 1.4v49.9c0 .5 0 .9.1 1.4.2 1.4 1 2.4 2.3 2.8.6.2 1.3.2 2 .2h83.3c1.7-.1 3-1.3 3.3-3 .1-.5.1-.9.1-1.4V34.7c0-.5 0-.9-.1-1.4-.2-1.3-.9-2.3-2.2-2.7-.6-.2-1.3-.2-2-.2-13.8-.1-27.6-.1-41.3-.1m51.4 2.7v53.4c-.1.2-.1.3-.2.5-.5 4.1-4.1 7.7-8.3 8-.2 0-.4.1-.5.2H17c-.5-.1-1-.1-1.5-.3-3.6-.9-6-3.1-7.1-6.7-.2-.5-.3-1.1-.4-1.6V33c.1-.2.1-.3.2-.5.5-4.1 4.1-7.7 8.3-8 .2 0 .4-.1.5-.2h84.7c.5.1 1 .1 1.4.2 3.8 1 6.3 3.4 7.4 7.2.1.5.2.9.3 1.3"/><path clip-path="url(#SVGID_2_)" fill="#FFF" d="M47 44.2c0-2.2-1.9-4-4-3.9-1.8 0-3.9 1.4-3.9 4 0 2.5 2 4 4 4 2.2-.1 4-2 3.9-4.1m-3.9 7.7c-4.4 0-7.7-3.6-7.7-7.8 0-3.8 3-7.7 7.8-7.7 4.5 0 7.7 3.6 7.7 7.8-.1 4.5-3.7 7.8-7.8 7.7m0 5.2h-2.9c-1.6 0-3.3 1.1-3.7 2.8-.1.4-.1.8-.1 1.3v2.4c0 .3 0 .5-.1.8-.1 1-.9 1.7-1.9 1.7-1.1-.1-1.8-.9-1.9-1.8v-2c0-.8 0-1.6.1-2.4.3-2.8 2.5-5.5 5.7-6.2.7-.2 1.4-.2 2.1-.2h5.3c2.3 0 4.3.8 5.9 2.5 1.2 1.4 1.9 3 2 4.8v3.4c0 1-.7 1.7-1.6 1.9-.9.2-1.8-.4-2.1-1.3-.1-.3-.1-.6-.1-.9v-3.1c0-1.8-1.6-3.5-3.6-3.5-1-.2-2-.2-3.1-.2zM70 67.5H22.9c-.4 0-.9.1-1.3.1-1 .1-1.7.8-1.9 2.2-.1.9.6 2 1.6 2.3.4.1.9.2 1.4.2h47.2v-4.8zm28.2 2.3c0-1.1-.8-2-1.8-2.2-.4-.1-.9-.1-1.3-.1h-9.6v4.8h9.7c.5 0 .9 0 1.4-.2 1-.3 1.6-1.3 1.6-2.3"/><path clip-path="url(#SVGID_2_)" fill="#ED1C24" d="M77.7 56.5h-3.1c-1.8 0-3.5 1.2-3.9 2.9-.1.4-.1.9-.1 1.3v23c0 .3 0 .5-.1.8-.2 1-1 1.8-2 1.7-1.2-.1-1.9-.9-2-1.9v-2.1c0-.8 0-22.1.1-22.9.3-2.9 2.7-5.8 6.1-6.5.7-.2 1.5-.2 2.2-.2h5.7c2.5 0 4.6.8 6.3 2.6 1.3 1.4 2 3.1 2.1 5 .1 1.2 0 22.9 0 24.1 0 1.1-.7 1.8-1.7 2-.9.2-2-.5-2.2-1.4-.1-.3-.1-.7-.1-1V60.2c0-1.9-1.7-3.7-3.9-3.7h-3.4z"/><path clip-path="url(#SVGID_2_)" fill="none" stroke="#ED1C24" d="M77.7 56.5h-3.1c-1.8 0-3.5 1.2-3.9 2.9-.1.4-.1.9-.1 1.3v23c0 .3 0 .5-.1.8-.2 1-1 1.8-2 1.7-1.2-.1-1.9-.9-2-1.9v-2.1c0-.8 0-22.1.1-22.9.3-2.9 2.7-5.8 6.1-6.5.7-.2 1.5-.2 2.2-.2h5.7c2.5 0 4.6.8 6.3 2.6 1.3 1.4 2 3.1 2.1 5 .1 1.2 0 22.9 0 24.1 0 1.1-.7 1.8-1.7 2-.9.2-2-.5-2.2-1.4-.1-.3-.1-.7-.1-1V60.2c0-1.9-1.7-3.7-3.9-3.7h-3.4 0z"/><path clip-path="url(#SVGID_2_)" fill="#ED1C24" d="M81.7 44.2c0-2.2-1.9-4-4-3.9-1.8 0-3.9 1.4-3.9 4 0 2.5 2 4 4 4 2.1-.1 3.9-2 3.9-4.1m-4 7.7c-4.4 0-7.7-3.6-7.7-7.8 0-3.8 3-7.7 7.8-7.7 4.5 0 7.7 3.6 7.7 7.8-.1 4.5-3.7 7.8-7.8 7.7"/></svg>