<svg version="1.1" id="Layer_1" xmlns="http://www.w3.org/2000/svg" xmlns:xlink="http://www.w3.org/1999/xlink" x="0" y="0" viewBox="0 0 120 120" xml:space="preserve"><defs><path id="SVGID_1_" d="M10 25.2h100V94H10z"/></defs><clipPath id="SVGID_2_"><use xlink:href="#SVGID_1_" overflow="visible"/></clipPath><path clip-path="url(#SVGID_2_)" fill="#FFF" d="M60 31.1H19c-1.6.1-2.9 1.3-3.2 2.9-.1.4-.1.9-.1 1.4v48.5c0 .5 0 .9.1 1.4.2 1.3.9 2.3 2.2 2.7.6.2 1.3.2 1.9.2H101c1.6-.1 2.9-1.3 3.2-2.9.1-.4.1-.9.1-1.4V35.4c0-.5 0-.9-.1-1.4-.2-1.3-.9-2.2-2.1-2.7-.6-.2-1.3-.2-1.9-.2H60m50 2.5v52c-.1.1-.1.3-.2.4-.5 4-4 7.5-8.1 7.8-.2 0-.4.1-.5.2H18.8c-.5-.1-1-.1-1.5-.3-3.5-.9-5.9-3-6.9-6.5-.2-.5-.3-1.1-.4-1.6v-52c.1-.1.1-.3.2-.4.5-4 4-7.5 8.1-7.8.2 0 .4-.1.5-.2h82.4c.5.1.9.1 1.4.2 3.7 1 6.2 3.3 7.2 7 .1.5.1.9.2 1.2"/><path clip-path="url(#SVGID_2_)" fill="#ED1C24" d="M79.7 72.9h12.5c.4 0 .9 0 1.3.2 1 .3 1.7 1.2 1.6 2.3-.1 1-.8 1.8-1.8 2-.4.1-.8.1-1.3.1H67.1c-.7 0-1.4 0-2.1-.4-.7-.5-1.1-1.2-1-2.1.1-.9.6-1.7 1.5-1.9.4-.1.9-.2 1.3-.2h12.9"/><path fill="#FFF" d="M12.5 42.1h96.3v12.4H12.5z"/></svg>