<svg version="1.1" id="Layer_1" xmlns="http://www.w3.org/2000/svg" xmlns:xlink="http://www.w3.org/1999/xlink" x="0" y="0" viewBox="0 0 120 120" xml:space="preserve"><defs><path id="SVGID_1_" d="M25 10h68.8v100H25z"/></defs><clipPath id="SVGID_2_"><use xlink:href="#SVGID_1_" overflow="visible"/></clipPath><path clip-path="url(#SVGID_2_)" fill="#FFF" d="M87.9 60V19c-.1-1.6-1.3-2.9-2.9-3.2-.4-.1-.9-.1-1.4-.1H35.1c-.5 0-.9 0-1.4.1-1.3.2-2.3.9-2.7 2.2-.2.6-.2 1.3-.2 1.9V101c.1 1.6 1.3 2.9 2.9 3.2.4.1.9.1 1.4.1h48.5c.5 0 .9 0 1.4-.1 1.3-.2 2.2-.9 2.7-2.1.2-.6.2-1.3.2-1.9V60m-2.5 50h-52c-.1-.1-.3-.1-.4-.2-4-.5-7.5-4-7.8-8.1 0-.2-.1-.4-.2-.5V18.8c.1-.5.1-1 .3-1.5.9-3.5 3-5.9 6.5-6.9.5-.2 1.1-.3 1.6-.4h52c.1.1.3.1.4.2 4 .5 7.5 4 7.8 8.1 0 .2.1.4.2.5v82.4c-.1.5-.1.9-.2 1.4-1 3.7-3.3 6.2-7 7.2-.5.1-.9.1-1.2.2"/><path clip-path="url(#SVGID_2_)" fill="#FFF" d="M63.2 19h.1c.4 0 .9 0 1.3.2 1 .3 1.7 1.2 1.6 2.3-.1 1-.8 1.8-1.8 2-.4.1-.8.1-1.3.1h-7.6c-.7 0-1.4 0-2.1-.4-.7-.5-1.1-1.2-1-2.1.1-.9.6-1.7 1.5-1.9.4-.1.9-.2 1.3-.2h8m-3.8 81.2c1.3 0 2.3-1 2.3-2.3 0-1.3-1-2.3-2.3-2.3-1.3 0-2.3 1-2.3 2.3 0 1.3 1 2.3 2.3 2.3"/><path clip-path="url(#SVGID_2_)" fill="#ED1C24" d="M59.4 40.8c-10.6 0-19.1 8.6-19.1 19.1 0 10.6 8.6 19.1 19.1 19.1 5.4 0 10.8-.9 14.8-4.6.9-1.1 1.4-1.8 1.4-2.8 0-1.6-1.1-1.9-1.9-1.9-1 0-2.4 1.7-3.5 2.2-3.3 1.8-7.1 2.4-10.8 2.4-8 0-14.5-6.5-14.5-14.5s6.5-14.5 14.5-14.5c7.5 0 14.5 4.6 14.5 12 0 5.6-3.7 7.9-5.2 7.9-.8 0-1.2-.5-1.2-1.1 0-.6.1-1.3.2-1.7l2.1-9.5c.1-.5.2-1 .2-1.7 0-.9-1.1-1.5-2.4-1.5-2.1 0-2.9.9-2.9 2.5v.6h-.1c-1.4-2.2-3.5-3.1-6.1-3.1-6.2 0-10.1 5.7-10.1 11.6 0 4.5 3.3 9.1 7.7 9.1 2.1 0 4.1-.9 5.5-2.5h.1c0 1.4.9 2.5 3.6 2.5 2.5 0 13.4-3 13.4-13.2-.2-9.3-9.6-16.4-19.3-16.4m-2.2 24.6c-2.4 0-3.6-2.3-3.6-4.5 0-2.6 2.1-5.6 4.9-5.6 2.5 0 4 2.1 4 4.4 0 3-2.2 5.7-5.3 5.7"/></svg>