<svg version="1.1" id="Layer_1" xmlns="http://www.w3.org/2000/svg" x="0" y="0" viewBox="0 0 120 120" xml:space="preserve"><path fill="#FFF" d="M59.4 25.9H17.3c-1.7.1-3 1.3-3.3 3-.1.5-.1.9-.1 1.4v49.9c0 .5 0 .9.1 1.4.2 1.4 1 2.3 2.3 2.8.6.2 1.3.2 2 .2h83.3c1.7-.1 3-1.3 3.3-3 .1-.5.1-.9.1-1.4V30.3c0-.5 0-.9-.1-1.4-.2-1.3-.9-2.3-2.2-2.7-.6-.2-1.3-.2-2-.2-13.8-.1-27.6-.1-41.3-.1m51.4 2.6v53.4c-.1.2-.1.3-.2.5-.5 4.1-4.1 7.7-8.3 8-.2 0-.4.1-.5.2H17c-.5-.1-1-.1-1.5-.3-3.6-.9-6-3.1-7.1-6.7-.2-.6-.3-1.1-.4-1.7V28.5c.1-.2.1-.3.2-.5.5-4.1 4.1-7.7 8.3-8 .2 0 .4-.1.5-.2h84.7c.5.1 1 .1 1.4.2 3.8 1 6.3 3.4 7.4 7.2.1.6.2.9.3 1.3M59.5 94.4h15.1c.5 0 1.1.1 1.6.2 1.2.3 2 1.5 1.9 2.8-.1 1.2-.9 2.2-2.2 2.5-.5.1-1 .2-1.5.2H44.3c-.9 0-1.7 0-2.5-.5-.9-.6-1.3-1.5-1.2-2.5.1-1.1.7-2 1.9-2.3.5-.1 1.1-.2 1.6-.2 5.1-.2 10.2-.2 15.4-.2"/><path fill="#ED1C24" d="M93.9 79.4c1.2 0 2.2-.5 3.1-1.3 1.7-1.7 1.7-4.5 0-6.2L83.7 58.6l9.7.4c2.3 0 4.2-1.8 4.3-4.2.1-2.4-1.8-4.4-4.2-4.5L73 49.5h-1c-.2 0-.4.1-.6.2h-.1c-.3.1-.5.2-.8.4l-.1.1c-.2.2-.5.3-.7.6-.2.2-.4.4-.6.7v.1c-.2.2-.3.5-.4.7 0 .1-.1.2-.1.2-.1.2-.1.4-.2.6v.9l.8 20.7c.1 2.4 2 4.2 4.3 4.2h.2c2.4-.1 4.3-2.1 4.2-4.5l-.3-9.7 13.3 13.4c.7.8 1.8 1.3 3 1.3z"/></svg>