<svg version="1.1" id="Layer_1" xmlns="http://www.w3.org/2000/svg" xmlns:xlink="http://www.w3.org/1999/xlink" x="0" y="0" viewBox="0 0 120 120" xml:space="preserve"><defs><path id="SVGID_1_" d="M24 24.5h72.9V95H24z"/></defs><clipPath id="SVGID_2_"><use xlink:href="#SVGID_1_" overflow="visible"/></clipPath><path clip-path="url(#SVGID_2_)" fill="#FFF" d="M60.5 95C80.6 95 97 79.2 97 59.8S80.6 24.5 60.5 24.5 24 40.3 24 59.8 40.3 95 60.5 95"/><path clip-path="url(#SVGID_2_)" fill="#007037" d="M50.2 80.5c-.1-1-.1-1.9-.2-2.7 0-1.2.1-2.4.4-3.6.6-2.2 1.9-3.8 3.9-4.9 1.4-.8 3-1.2 4.6-1.4 1.6-.2 3.2-.3 4.7-.2 1.4.1 2.8.2 4.3.4l2.7.3c1.1.1 2.1.3 3.2.5.9.1 1.8.3 2.7.4.8.1 1.6.1 2.5.1.3 0 .5-.1.8-.1.5-.2.6-.6.4-1-.1-.1-.1-.2-.2-.4-1.2-2-1.6-4.1-1.4-6.4.2-1.8.8-3.5 1.8-5.1 1.2-2 2.7-3.7 4.7-4.9.7-.5 1.5-.9 2.4-1 .6-.1 1.2-.1 1.8 0 .8.1 1.5.7 1.8 1.4.3.5.5 1.1.6 1.7.2.9.3 1.8.3 2.7.1 1 .1 1.9.1 2.9 0 4.4-.9 8.7-2.7 12.8-.9 2.2-2.1 4.2-3.5 6.1-2 2.8-4.4 5.2-7.2 7.2-2.9 2.1-6.2 3.7-9.6 4.8-1.8.5-3.6.9-5.4 1.2-.8-.3-1.7-.3-2.7-.3-1.3.1-2.5 0-3.8-.1-1.7-.1-3.4-.4-5.1-.8-2.7-.7-5.3-1.7-7.7-3-3.4-1.8-6.4-4.2-8.9-7.1-1.8-2.1-3.4-4.4-4.6-6.8-.2-.4-.3-.9-.5-1.3-.1-.2-.1-.4.1-.5.1-.1.4-.1.5 0 .5.3 1.1.6 1.6 1 1.6 1.2 3.1 2.6 4.8 3.8 2.3 1.7 4.6 3.1 7.3 4 1.3.4 2.6.7 3.9.6.5 0 1.1-.1 1.6-.3"/><path clip-path="url(#SVGID_2_)" fill="#008242" d="M50.3 66.2c.6-.5 1-.9 1.5-1.2.9-.6 1.8-1.1 2.9-1.4 1.6-.3 3.1-.1 4.5.7.5.3.9.6 1.4.9.1 0 .1.1.2.2-.6.1-1.1.1-1.7.2-2 .2-4 .7-5.8 1.7-2.8 1.5-4.4 3.8-5 6.9-.3 1.5-.3 2.8-.3 4.1v.4c-.8.1-1.5-.1-2.2-.4-1.8-.5-3.4-1.4-5-2.4-2.7-1.6-5.2-3.4-7.6-5.4-.5-.4-.8-.8-1-1.4-.6-1.7-1.1-3.3-1.4-5.1-.2-1.2-.4-2.4-.5-3.7-.1-1.3-.2-2.6-.1-3.9.1-3.8.7-7.6 2.2-11.1 1-2.3 2.3-4.5 4.1-6.2.4-.4.9-.8 1.4-1.1.2-.2.5-.3.7-.4.8-.3 1.4-.1 1.8.7.2.4.3.8.4 1.2.2 1.3.3 2.5.1 3.8-.1.5-.1 1.1-.2 1.6-.1 1.1-.2 2.1-.5 3.2-.4 1.9-.8 3.8-1.3 5.8-.5 1.9-1.1 3.8-1.8 5.6 0 .1 0 .1-.1.3.3 0 .4-.2.6-.3.9-.7 1.9-1.4 3-1.8 2.2-.8 4.4-.7 6.4.6 1.2.8 2.1 2 2.6 3.4.5 1.2.7 2.4.7 3.7v.8"/><path clip-path="url(#SVGID_2_)" fill="#008D48" d="M78.5 45.1c-.6-1-1.1-1.9-1.6-2.8-1.5-2.7-2.9-5.5-3.7-8.6l-.3-1.5c0-.4-.1-.8.3-1.1.4-.3.8 0 1.2.2l1.5.9c4.3 2.8 7.7 6.4 10.1 11 .8 1.4 1.4 2.9 1.9 4.4 0 .1.1.2.1.4-.1.1-.2.1-.3.1-1.8.3-3.4 1.1-4.8 2.2-3.1 2.5-4.8 5.7-5.7 9.5-.3 1.4-.3 2.8-.2 4.3.1.9.3 1.7.6 2.5 0 .1.1.3.1.4H77c-1.3-.2-2.6-.3-3.9-.5l-4.2-.6c-.5-.1-1.1-.2-1.6-.2-.9-.1-1.9-.1-2.8-.2-.4 0-.7-.1-.9-.4-.9-1.1-2-2-3.2-2.7-.3-.2-.7-.3-1-.5-.2-1.5.7-3.1 1.9-3.7.7-.4 1.4-.6 2.2-.7.4 0 .9-.1 1.4-.2v-1.1c.1-1.9.5-3.8 1.3-5.5 1.1-2.2 2.9-3.7 5.2-4.5 1.4-.6 2.9-.9 4.5-1 .5 0 1.5-.1 2.6-.1"/><path clip-path="url(#SVGID_2_)" fill="#009246" d="M56.8 61.4c-1.7-.1-3.2.2-4.8 1-.1-.2-.1-.4-.2-.6-.9-2.7-2.5-4.8-5.1-6-1.4-.6-2.8-.9-4.4-.7-.6.1-1.1.2-1.7.3 0-.2.1-.4.1-.5.7-2.4 1.3-4.8 1.7-7.2.2-1.3.3-2.5.5-3.8.1-.8.1-1.6.1-2.4 0-1-.1-1.9-.4-2.9-.3-1.2-.8-2.2-2-2.8.4-.4.8-.7 1.1-1 1.2-.9 2.4-1.8 3.6-2.6 1-.6 1.9-.5 2.9 0 1 .6 1.7 1.5 2.3 2.5.8 1.4 1.3 2.9 1.5 4.5.2 1 .3 2 .3 3-.1 2.5-.6 4.9-1.6 7.2-.1.3-.2.6-.4 1 .3-.1.5-.1.7-.2 1.2-.5 2.4-.7 3.7-.7 2.5 0 4.8.8 6.7 2.5.5.5.9 1 1.3 1.5-.1.8-.2 1.5-.3 2.2-.2.1-.5.1-.7.2-1.9.5-3.4 1.7-4.3 3.5-.3.5-.4 1.1-.5 1.7 0 0 0 .2-.1.3"/><path clip-path="url(#SVGID_2_)" fill="#289643" d="M75 43.2c-.6.1-1.1.2-1.6.3-2 .4-3.9 1-5.6 2.1-1.9 1.2-3.3 2.8-4.1 4.9-.1.1-.1.3-.2.5-2.7-2.8-5.9-3.8-9.7-3.6.1-.5.2-1 .3-1.4.5-2 .5-4.1.3-6.1-.2-2.3-.9-4.5-2.1-6.5 0-.1-.1-.2-.1-.3l1.8-.6c1.8-.5 3.7-.8 5.6-.9 1.3-.1 2.6 0 3.9.1 2.5.2 5 .8 7.3 1.8.3.1.4.3.5.6.6 2.5 1.7 4.9 2.9 7.2.1.5.4 1.2.8 1.9"/></svg>