<svg version="1.1" id="Layer_1" xmlns="http://www.w3.org/2000/svg" xmlns:xlink="http://www.w3.org/1999/xlink" x="0" y="0" viewBox="0 0 120 120" xml:space="preserve"><defs><path id="SVGID_1_" d="M16 8.8h87.7V111H16z"/></defs><clipPath id="SVGID_2_"><use xlink:href="#SVGID_1_" overflow="visible"/></clipPath><path clip-path="url(#SVGID_2_)" fill="#ED1C24" d="M29.7 69.2h1.1c.3 0 .5 0 .8-.1.3-.1.6-.3.9-.3.7-.1 1.2-.5 1.8-.8.5-.3.9-.7 1.3-1 .6-.5 1.1-1.1 1.6-1.7.1-.2.2-.4.3-.5.2-.2.3-.4.4-.7 0-.2.3-.4.3-.7.1-.4.3-.8.4-1.3.2-.5.1-1.1.2-1.6.1-.8-.1-1.6-.1-2.5 0-.1 0-.1-.1-.2-.3-.6-.4-1.3-.7-1.9-.2-.3-.4-.7-.5-1-.3-.6-.7-1-1.1-1.5-.2-.2-.5-.4-.7-.6-.7-.7-1.6-1.1-2.5-1.6h-.2c-.3-.1-.5-.2-.8-.3-.4-.2-.8-.3-1.3-.3h-2.5c-.3 0-.7.1-1 .2l-.9.3c-.3.1-.5.2-.8.4-.3.1-.5.3-.8.4-.8.4-1.3 1-1.9 1.6-.5.5-.9 1.2-1.3 1.8-.1.1-.1.2-.2.3-.1.1-.1.3-.2.4-.1.2-.2.4-.2.6-.1.3-.2.5-.2.8-.1.2-.2.4-.2.7 0 .5-.1 1-.1 1.5-.1.7 0 1.5.1 2.2 0 .1.1.1.1.2.1.3.3.6.3 1 .1.6.5 1 .6 1.5 0 .1.1.1.1.2.1.1.2.2.2.3.1.3.3.6.6.8l.3.3c.2.2.4.5.6.7.5.4 1 .9 1.5 1.2.5.3 1 .5 1.5.7.2.1.3.1.5.2.5.2 1 .3 1.6.3h1.2M66 62v1.7c0 .2-.1.4-.2.6 0 0-.1 0-.1.1-.1.5-.6.7-.9.9-.3.2-.6.2-.9.1-.7-.2-1.2-.7-1.4-1.5-.1-.5-.1-1-.1-1.5 0-.6 0-.7-.6-.7h-19c-.6 0-.8.2-.8.8 0 .4-.1.9-.3 1.2-.1.1-.1.2-.1.4-.1.3-.2.7-.3 1l-.6 1.2c-.3.6-.7 1.1-1.1 1.6-.4.5-.8 1-1.3 1.4-.5.5-1.1.9-1.6 1.3-.4.3-.8.4-1.1.7-.4.3-.9.3-1.2.6-.4 0-.7.2-1 .3-.3.1-.7.2-1 .2-.5.1-1.1.2-1.6.3h-.6c-.9 0-1.7 0-2.5-.3-.2-.1-.5-.1-.7-.1-.2 0-.4 0-.6-.1-.4-.3-1-.3-1.4-.5-.2-.1-.4-.3-.6-.3 0 0-.1 0-.1-.1-.4-.2-.8-.5-1.1-.7-.3-.2-.5-.4-.8-.6-.9-.6-1.5-1.3-2.2-2.1-.3-.3-.4-.7-.7-1-.3-.4-.4-.9-.8-1.3 0-.5-.5-.8-.5-1.4 0-.2-.1-.3-.2-.5-.2-.4-.3-.9-.3-1.4 0-.1-.1-.2-.1-.4-.1-.5-.3-1-.2-1.5V59c0-.6.1-1.2.3-1.8.1-.3.1-.7.2-1 0-.1.1-.3.1-.4.2-.3.3-.6.3-.9 0-.1 0-.2.1-.3.2-.2.2-.4.3-.7 0-.1.1-.2.1-.3.1-.1.1-.2.2-.3.2-.5.6-.9.9-1.4.4-.8 1.1-1.3 1.7-1.9.4-.4.9-.8 1.4-1.1.4-.3.8-.4 1.1-.7 0 0 .1 0 .1-.1.4-.1.7-.4 1.1-.5.5-.1.9-.3 1.3-.5.2-.1.5 0 .7-.1.2-.1.5-.1.7-.1.9-.3 1.8-.2 2.7-.2.4 0 .9.2 1.3.2.3.1.7.1 1 .2.2 0 .3.1.5.1.5.2.9.3 1.4.5.3.1.5.4.8.3.4.2.7.5 1.1.7.6.3 1 .8 1.5 1.2.5.4.8.8 1.2 1.3.2.2.3.5.5.7.4.6.8 1.1 1.1 1.8.3.6.6 1.1.7 1.7 0 .1.1.2.1.3.2.4.3.7.3 1.1 0 .2 0 .4.1.5.1.2.3.4.6.3h35.9c.6 0 1.1.3 1.4.6.4.3.6.8.6 1.4v5.3c0 .5-.2 1-.6 1.4-.3.3-.7.5-1.1.6-.2 0-.4 0-.6-.1-.2-.1-.4-.3-.7-.4-.1 0-.1-.1-.1-.2s-.1-.1-.1-.2c-.5 0-.6-.5-.6-1v-2.8c0-.4-.1-.4-.4-.4h-2.8c-.4 0-.4.1-.4.5v5c0 .6-.3 1-.6 1.4-.3.4-.8.5-1.2.6-.1 0-.3 0-.4-.1-.4-.2-.8-.4-1.1-.8-.2-.5-.4-1-.3-1.5v-4.7c0-.2-.1-.3-.3-.3h-2.8c-.4-.2-.6-.1-.7.1"/><path clip-path="url(#SVGID_2_)" fill="none" stroke="#ED1C24" stroke-width="2" stroke-miterlimit="10" d="M29.7 69.2h1.1c.3 0 .5 0 .8-.1.3-.1.6-.3.9-.3.7-.1 1.2-.5 1.8-.8.5-.3.9-.7 1.3-1 .6-.5 1.1-1.1 1.6-1.7.1-.2.2-.4.3-.5.2-.2.3-.4.4-.7 0-.2.3-.4.3-.7.1-.4.3-.8.4-1.3.2-.5.1-1.1.2-1.6.1-.8-.1-1.6-.1-2.5 0-.1 0-.1-.1-.2-.3-.6-.4-1.3-.7-1.9-.2-.3-.4-.7-.5-1-.3-.6-.7-1-1.1-1.5-.2-.2-.5-.4-.7-.6-.7-.7-1.6-1.1-2.5-1.6h-.2c-.3-.1-.5-.2-.8-.3-.4-.2-.8-.3-1.3-.3h-2.5c-.3 0-.7.1-1 .2l-.9.3c-.3.1-.5.2-.8.4-.3.1-.5.3-.8.4-.8.4-1.3 1-1.9 1.6-.5.5-.9 1.2-1.3 1.8-.1.1-.1.2-.2.3-.1.1-.1.3-.2.4-.1.2-.2.4-.2.6-.1.3-.2.5-.2.8-.1.2-.2.4-.2.7 0 .5-.1 1-.1 1.5-.1.7 0 1.5.1 2.2 0 .1.1.1.1.2.1.3.3.6.3 1 .1.6.5 1 .6 1.5 0 .1.1.1.1.2.1.1.2.2.2.3.1.3.3.6.6.8l.3.3c.2.2.4.5.6.7.5.4 1 .9 1.5 1.2.5.3 1 .5 1.5.7.2.1.3.1.5.2.5.2 1 .3 1.6.3h1.2zM66 62v1.7c0 .2-.1.4-.2.6 0 0-.1 0-.1.1-.1.5-.6.7-.9.9-.3.2-.6.2-.9.1-.7-.2-1.2-.7-1.4-1.5-.1-.5-.1-1-.1-1.5 0-.6 0-.7-.6-.7h-19c-.6 0-.8.2-.8.8 0 .4-.1.9-.3 1.2-.1.1-.1.2-.1.4-.1.3-.2.7-.3 1l-.6 1.2c-.3.6-.7 1.1-1.1 1.6-.4.5-.8 1-1.3 1.4-.5.5-1.1.9-1.6 1.3-.4.3-.8.4-1.1.7-.4.3-.9.3-1.2.6-.4 0-.7.2-1 .3-.3.1-.7.2-1 .2-.5.1-1.1.2-1.6.3h-.6c-.9 0-1.7 0-2.5-.3-.2-.1-.5-.1-.7-.1-.2 0-.4 0-.6-.1-.4-.3-1-.3-1.4-.5-.2-.1-.4-.3-.6-.3 0 0-.1 0-.1-.1-.4-.2-.8-.5-1.1-.7-.3-.2-.5-.4-.8-.6-.9-.6-1.5-1.3-2.2-2.1-.3-.3-.4-.7-.7-1-.3-.4-.4-.9-.8-1.3 0-.5-.5-.8-.5-1.4 0-.2-.1-.3-.2-.5-.2-.4-.3-.9-.3-1.4 0-.1-.1-.2-.1-.4-.1-.5-.3-1-.2-1.5V59c0-.6.1-1.2.3-1.8.1-.3.1-.7.2-1 0-.1.1-.3.1-.4.2-.3.3-.6.3-.9 0-.1 0-.2.1-.3.2-.2.2-.4.3-.7 0-.1.1-.2.1-.3.1-.1.1-.2.2-.3.2-.5.6-.9.9-1.4.4-.8 1.1-1.3 1.7-1.9.4-.4.9-.8 1.4-1.1.4-.3.8-.4 1.1-.7 0 0 .1 0 .1-.1.4-.1.7-.4 1.1-.5.5-.1.9-.3 1.3-.5.2-.1.5 0 .7-.1.2-.1.5-.1.7-.1.9-.3 1.8-.2 2.7-.2.4 0 .9.2 1.3.2.3.1.7.1 1 .2.2 0 .3.1.5.1.5.2.9.3 1.4.5.3.1.5.4.8.3 0 0 0 0 0 0 .4.2.7.5 1.1.7.6.3 1 .8 1.5 1.2.5.4.8.8 1.2 1.3.2.2.3.5.5.7.4.6.8 1.1 1.1 1.8.3.6.6 1.1.7 1.7 0 .1.1.2.1.3.2.4.3.7.3 1.1 0 .2 0 .4.1.5.1.2.3.4.6.3h35.9c.6 0 1.1.3 1.4.6.4.3.6.8.6 1.4v5.3c0 .5-.2 1-.6 1.4-.3.3-.7.5-1.1.6-.2 0-.4 0-.6-.1-.2-.1-.4-.3-.7-.4-.1 0-.1-.1-.1-.2s-.1-.1-.1-.2c-.5 0-.6-.5-.6-1v-2.8c0-.4-.1-.4-.4-.4h-2.8c-.4 0-.4.1-.4.5v5c0 .6-.3 1-.6 1.4-.3.4-.8.5-1.2.6-.1 0-.3 0-.4-.1-.4-.2-.8-.4-1.1-.8-.2-.5-.4-1-.3-1.5v-4.7c0-.2-.1-.3-.3-.3h-2.8c-.4-.2-.6-.1-.7.1z"/><path clip-path="url(#SVGID_2_)" fill="none" stroke="#FFF" stroke-width="6" stroke-linecap="round" d="M36 96.7v3.8c0 1.2.5 7.5 7.5 7.5h49.6c1.2 0 7.5-.5 7.5-7.5V19.3c0-1.2-.5-7.5-7.5-7.5H43.6c-1.2 0-7.5.5-7.5 7.5v3.8"/></svg>