<svg version="1.1" id="Layer_1" xmlns="http://www.w3.org/2000/svg" xmlns:xlink="http://www.w3.org/1999/xlink" x="0" y="0" viewBox="0 0 120 120" xml:space="preserve"><defs><path id="SVGID_1_" d="M8 24.3h102.8V95H8z"/></defs><clipPath id="SVGID_2_"><use xlink:href="#SVGID_1_" overflow="visible"/></clipPath><path clip-path="url(#SVGID_2_)" d="M45.4 75.7c.3-.1.7-.3 1-.4.2-.1.5-.2.7-.4.3-.2.5-.5.7-.7.6-.4.9-.9 1.4-1.5.4-.4.6-1 .8-1.4.4-.7.6-1.4.8-2.2.1-.2 0-.4.1-.6.1-.2.1-.5.1-.7-.1-.2.1-.5 0-.7-.1-.4-.1-.9-.1-1.3 0-.6-.3-1-.4-1.6-.2-.8-.7-1.5-1-2.2 0-.1-.1-.1-.1-.2-.5-.5-.9-1-1.4-1.5-.3-.3-.6-.5-.9-.7-.5-.4-1.1-.6-1.6-.9l-.9-.3c-.9-.4-1.9-.4-2.9-.5h-.2c-.3 0-.6.1-.8.1-.4 0-.9.1-1.3.2-.8.3-1.5.6-2.3 1-.3.1-.6.3-.9.6-.2.2-.5.4-.7.7-.2.2-.4.4-.6.7-.2.2-.4.5-.6.7-.6.6-.8 1.4-1.2 2.2-.3.7-.4 1.4-.5 2.1v1.5c0 .3.1.5.1.8 0 .2 0 .5.1.7.2.5.3 1 .5 1.4.2.7.6 1.3.9 2 0 .1.1.1.2.1.2.2.5.5.7.8.3.5.8.7 1.1 1.1 0 .1.1.1.2.1.1.1.2.1.3.2.3.2.5.4.9.5.1 0 .3.1.4.2.3.1.6.3.8.4.6.2 1.2.4 1.9.5.5 0 1.1.1 1.6.1h.5c.6 0 1.1-.1 1.6-.3.3-.4.6-.5 1-.6M76 54.8l.6 1.5c.1.2.1.4.1.6v.1c.1.5-.3.8-.5 1.2-.2.3-.5.4-.8.4-.7 0-1.4-.1-1.9-.8-.3-.4-.5-.9-.7-1.4-.2-.5-.2-.6-.8-.4-5.8 2.5-11.7 5-17.5 7.5-.5.2-.6.5-.4 1.1.2.4.2.8.2 1.3v.4c.1.3.1.7.1 1-.1.4 0 .9-.1 1.3-.1.6-.2 1.3-.4 1.9l-.6 1.8c-.3.6-.7 1.2-1 1.8-.2.4-.5.7-.8 1.1-.2.4-.7.6-.9 1-.4.1-.6.5-.8.7l-.9.6c-.5.3-.9.6-1.4.9l-.6.3c-.8.4-1.6.6-2.5.7-.2 0-.5.1-.7.2-.2 0-.4.1-.6.1-.5-.1-1 .1-1.5.1-.2 0-.5-.1-.7 0h-.1c-.4-.1-.9-.1-1.3-.2-.3-.1-.6-.1-.9-.2-1-.2-1.9-.6-2.9-1-.4-.2-.6-.5-1-.6-.5-.2-.8-.7-1.3-.9-.2-.5-.8-.6-1-1-.1-.2-.2-.3-.4-.4-.4-.3-.6-.7-.8-1.1-.1-.1-.1-.2-.2-.3-.3-.4-.6-.8-.8-1.3-.2-.4-.4-.9-.6-1.3-.3-.6-.3-1.2-.5-1.8-.1-.3-.2-.7-.2-1 0-.1-.1-.3 0-.4 0-.3 0-.6-.1-1V67c.1-.3 0-.5 0-.7V66c0-.1.1-.2.1-.3 0-.6.2-1.1.3-1.6.1-.9.5-1.6.8-2.4.2-.6.6-1.1.9-1.6.2-.4.6-.7.8-1.1l.1-.1c.3-.2.5-.6.8-.8.4-.3.7-.7 1-1 .2-.2.4-.2.6-.4.1-.2.4-.2.6-.4.7-.6 1.5-.9 2.4-1.2.4-.2.9-.2 1.3-.3.3-.1.7-.1 1-.2.2 0 .3-.1.5-.1.5 0 1-.1 1.5-.1.3 0 .6.1.8 0h.1c.4.1.9.2 1.3.2.6.1 1.3.3 1.9.5.6.2 1.1.4 1.6.7.3.1.5.3.8.5.6.3 1.2.7 1.7 1.2.4.4 1 .7 1.3 1.3 0 .1.2.2.3.3.3.3.5.6.7.9.1.2.1.3.3.4.2.2.4.2.6.1.3-.2.6-.3 1-.4 10.7-4.6 21.4-9.2 32.1-13.7.5-.2 1.1-.2 1.6 0s.8.5 1.1 1c.7 1.6 1.4 3.2 2 4.8.2.5.2 1 0 1.5-.1.4-.4.7-.8 1-.2.1-.4.2-.6.2-.3 0-.5-.2-.8-.1-.1 0-.1 0-.2-.1-.1 0-.1-.1-.2-.1-.4-.3-.7-.7-.9-1.2-.3-.9-.7-1.7-1.1-2.6-.2-.4-.2-.4-.6-.2-.9.4-1.7.7-2.6 1.1-.3.2-.4.2-.2.6.6 1.5 1.3 3 1.9 4.5.2.5.2 1 0 1.5-.1.4-.5.8-.9 1-.1.1-.3.1-.4.1-.5 0-.9 0-1.3-.3s-.7-.7-.9-1.3c-.5-1.3-1.1-2.7-1.7-4 0-.1-.1-.2-.2-.4s-.2-.2-.4-.1-.4.2-.6.2l-2.1.9c.1 0 0 .1-.1.4"/><path clip-path="url(#SVGID_2_)" fill="none" stroke="#FFF" stroke-width="2" stroke-miterlimit="10" d="M45.4 75.7c.3-.1.7-.3 1-.4.2-.1.5-.2.7-.4.3-.2.5-.5.7-.7.6-.4.9-.9 1.4-1.5.4-.4.6-1 .8-1.4.4-.7.6-1.4.8-2.2.1-.2 0-.4.1-.6.1-.2.1-.5.1-.7-.1-.2.1-.5 0-.7-.1-.4-.1-.9-.1-1.3 0-.6-.3-1-.4-1.6-.2-.8-.7-1.5-1-2.2 0-.1-.1-.1-.1-.2-.5-.5-.9-1-1.4-1.5-.3-.3-.6-.5-.9-.7-.5-.4-1.1-.6-1.6-.9l-.9-.3c-.9-.4-1.9-.4-2.9-.5h-.2c-.3 0-.6.1-.8.1-.4 0-.9.1-1.3.2-.8.3-1.5.6-2.3 1-.3.1-.6.3-.9.6-.2.2-.5.4-.7.7-.2.2-.4.4-.6.7-.2.2-.4.5-.6.7-.6.6-.8 1.4-1.2 2.2-.3.7-.4 1.4-.5 2.1v1.5c0 .3.1.5.1.8 0 .2 0 .5.1.7.2.5.3 1 .5 1.4.2.7.6 1.3.9 2 0 .1.1.1.2.1.2.2.5.5.7.8.3.5.8.7 1.1 1.1 0 .1.1.1.2.1.1.1.2.1.3.2.3.2.5.4.9.5.1 0 .3.1.4.2.3.1.6.3.8.4.6.2 1.2.4 1.9.5.5 0 1.1.1 1.6.1h.5c.6 0 1.1-.1 1.6-.3.3-.4.6-.5 1-.6zM76 54.8l.6 1.5c.1.2.1.4.1.6v.1c.1.5-.3.8-.5 1.2-.2.3-.5.4-.8.4-.7 0-1.4-.1-1.9-.8-.3-.4-.5-.9-.7-1.4-.2-.5-.2-.6-.8-.4-5.8 2.5-11.7 5-17.5 7.5-.5.2-.6.5-.4 1.1.2.4.2.8.2 1.3v.4c.1.3.1.7.1 1-.1.4 0 .9-.1 1.3-.1.6-.2 1.3-.4 1.9l-.6 1.8c-.3.6-.7 1.2-1 1.8-.2.4-.5.7-.8 1.1-.2.4-.7.6-.9 1-.4.1-.6.5-.8.7l-.9.6c-.5.3-.9.6-1.4.9l-.6.3c-.8.4-1.6.6-2.5.7-.2 0-.5.1-.7.2-.2 0-.4.1-.6.1-.5-.1-1 .1-1.5.1-.2 0-.5-.1-.7 0h-.1c-.4-.1-.9-.1-1.3-.2-.3-.1-.6-.1-.9-.2-1-.2-1.9-.6-2.9-1-.4-.2-.6-.5-1-.6-.5-.2-.8-.7-1.3-.9-.2-.5-.8-.6-1-1-.1-.2-.2-.3-.4-.4-.4-.3-.6-.7-.8-1.1-.1-.1-.1-.2-.2-.3-.3-.4-.6-.8-.8-1.3-.2-.4-.4-.9-.6-1.3-.3-.6-.3-1.2-.5-1.8-.1-.3-.2-.7-.2-1 0-.1-.1-.3 0-.4 0-.3 0-.6-.1-1V67c.1-.3 0-.5 0-.7V66c0-.1.1-.2.1-.3 0-.6.2-1.1.3-1.6.1-.9.5-1.6.8-2.4.2-.6.6-1.1.9-1.6.2-.4.6-.7.8-1.1l.1-.1c.3-.2.5-.6.8-.8.4-.3.7-.7 1-1 .2-.2.4-.2.6-.4.1-.2.4-.2.6-.4.7-.6 1.5-.9 2.4-1.2.4-.2.9-.2 1.3-.3.3-.1.7-.1 1-.2.2 0 .3-.1.5-.1.5 0 1-.1 1.5-.1.3 0 .6.1.8 0h.1c.4.1.9.2 1.3.2.6.1 1.3.3 1.9.5.6.2 1.1.4 1.6.7.3.1.5.3.8.5.6.3 1.2.7 1.7 1.2.4.4 1 .7 1.3 1.3 0 .1.2.2.3.3.3.3.5.6.7.9.1.2.1.3.3.4.2.2.4.2.6.1.3-.2.6-.3 1-.4 10.7-4.6 21.4-9.2 32.1-13.7.5-.2 1.1-.2 1.6 0s.8.5 1.1 1c.7 1.6 1.4 3.2 2 4.8.2.5.2 1 0 1.5-.1.4-.4.7-.8 1-.2.1-.4.2-.6.2-.3 0-.5-.2-.8-.1-.1 0-.1 0-.2-.1-.1 0-.1-.1-.2-.1-.4-.3-.7-.7-.9-1.2-.3-.9-.7-1.7-1.1-2.6-.2-.4-.2-.4-.6-.2-.9.4-1.7.7-2.6 1.1-.3.2-.4.2-.2.6.6 1.5 1.3 3 1.9 4.5.2.5.2 1 0 1.5-.1.4-.5.8-.9 1-.1.1-.3.1-.4.1-.5 0-.9 0-1.3-.3s-.7-.7-.9-1.3c-.5-1.3-1.1-2.7-1.7-4 0-.1-.1-.2-.2-.4s-.2-.2-.4-.1-.4.2-.6.2l-2.1.9c.1 0 0 .1-.1.4z"/><path clip-path="url(#SVGID_2_)" d="M59.4 30.3H17.3c-1.7.1-3 1.3-3.3 3-.1.5-.1.9-.1 1.4v49.9c0 .5 0 .9.1 1.4.2 1.4 1 2.3 2.3 2.8.6.2 1.3.2 2 .2h83.3c1.7-.1 3-1.3 3.3-3 .1-.5.1-.9.1-1.4V34.7c0-.5 0-.9-.1-1.4-.2-1.3-.9-2.3-2.2-2.7-.6-.2-1.3-.2-2-.2-13.8-.1-27.6-.1-41.3-.1m51.4 2.7v53.4c-.1.2-.1.3-.2.5-.5 4.1-4.1 7.7-8.3 8-.2 0-.4.1-.5.2H17c-.5-.1-1-.1-1.5-.3-3.6-.9-6-3.1-7.1-6.7-.2-.5-.3-1.1-.4-1.6V33c.1-.2.1-.3.2-.5.5-4.1 4.1-7.7 8.3-8 .2 0 .4-.1.5-.2h84.7c.5.1 1 .1 1.4.2 3.8 1 6.3 3.4 7.4 7.2.1.5.2.9.3 1.3"/><path fill="none" stroke="#ED1C24" stroke-width="4" stroke-linecap="round" d="M27.9 38.2l62.9 43"/></svg>