<svg version="1.1" id="Layer_1" xmlns="http://www.w3.org/2000/svg" xmlns:xlink="http://www.w3.org/1999/xlink" x="0" y="0" viewBox="0 0 120 120" xml:space="preserve"><defs><path id="SVGID_1_" d="M3 8.8h114.4V111H3z"/></defs><clipPath id="SVGID_2_"><use xlink:href="#SVGID_1_" overflow="visible"/></clipPath><path clip-path="url(#SVGID_2_)" d="M61.6 33.3v-17c-.1-.1-.1-.3-.1-.4-.2-3.5-3.2-6.5-6.6-6.9-.1 0-.3-.1-.4-.1H10.2c-.5 0-1 .1-1.4.2C5.8 10 4 12 3.2 15c-.1.4-.2.8-.2 1.3v87.2c.1.2.1.3.1.5.2 3.5 3.2 6.5 6.6 6.9.1 0 .3.1.4.1h44.2c.3-.1.6-.1 1-.2 3.2-.9 5.2-2.9 6-6.1.1-.4.1-.8.2-1.2V87.3h-5v15.3c0 .5 0 1.1-.2 1.6-.4 1-1.2 1.7-2.3 1.8-.4.1-.8.1-1.2.1H11.5c-.4 0-.8 0-1.2-.1-1.4-.2-2.4-1.3-2.5-2.7v-.8C8 79.8 8 40 8 17.3c0-.5 0-1.1.2-1.6.3-1.1 1.1-1.7 2.3-1.9.4-.1.8-.1 1.2-.1H53c.4 0 .8 0 1.2.1 1.4.2 2.4 1.3 2.5 2.7v16.9h4.9z"/><path clip-path="url(#SVGID_2_)" d="M35.5 16.5h.1c.4 0 .8 0 1.1.1.9.2 1.4 1.1 1.4 1.9-.1.9-.7 1.6-1.5 1.7-.3.1-.7.1-1.1.1H29c-.6 0-1.2 0-1.8-.4-.6-.4-.9-1-.9-1.8.1-.8.5-1.4 1.3-1.6.4-.1.8-.1 1.1-.2 3.8.2 3.2.2 6.8.2m-3.2 86.2c1.1 0 2-.9 2-2s-.9-2-2-2-2 .9-2 2 .9 2 2 2m42.6-67.1H40c-1.4.1-2.5 1.1-2.7 2.5-.1.4-.1.8-.1 1.2v41.3c0 .4 0 .8.1 1.2.2 1.1.8 1.9 1.9 2.3.5.2 1.1.2 1.6.2h69c1.4-.1 2.5-1.1 2.7-2.5.1-.4.1-.8.1-1.2V39.3c0-.4 0-.8-.1-1.2-.1-1.1-.8-1.9-1.8-2.3-.5-.2-1.1-.2-1.6-.2H74.9m42.5 2.2V82c0 .1-.1.3-.1.4-.4 3.4-3.4 6.4-6.9 6.6-.2 0-.3.1-.4.1H39.8c-.4-.1-.9-.1-1.3-.2-3-.8-5-2.6-5.9-5.6-.1-.4-.2-.9-.3-1.3V37.8c0-.1.1-.3.1-.4.4-3.4 3.4-6.4 6.9-6.6.2 0 .3-.1.4-.1H110c.4.1.8.1 1.2.2 3.2.8 5.2 2.8 6.1 6 0 .2.1.6.1.9"/><path clip-path="url(#SVGID_2_)" fill="#ED1C24" d="M91.7 71.2h10.6c.4 0 .8 0 1.1.1.9.2 1.4 1.1 1.4 1.9-.1.9-.7 1.6-1.5 1.7-.3.1-.7.1-1.1.1H81c-.6 0-1.2 0-1.8-.4-.6-.4-.9-1-.9-1.8.1-.8.5-1.4 1.3-1.6.4-.1.8-.1 1.1-.2 3.8.2 7.4.2 11 .2"/><path d="M34.4 45h82v10.5h-82z"/></svg>