<svg version="1.1" id="Layer_1" xmlns="http://www.w3.org/2000/svg" xmlns:xlink="http://www.w3.org/1999/xlink" x="0" y="0" viewBox="0 0 120 120" xml:space="preserve"><defs><path id="SVGID_1_" d="M10 25.2h100V94H10z"/></defs><clipPath id="SVGID_2_"><use xlink:href="#SVGID_1_" overflow="visible"/></clipPath><path clip-path="url(#SVGID_2_)" fill="#FFF" d="M60 31.1H19c-1.6.1-2.9 1.3-3.2 2.9-.1.4-.1.9-.1 1.4v48.5c0 .5 0 .9.1 1.4.2 1.3.9 2.3 2.2 2.7.6.2 1.3.2 1.9.2H101c1.6-.1 2.9-1.3 3.2-2.9.1-.4.1-.9.1-1.4V35.4c0-.5 0-.9-.1-1.4-.2-1.3-.9-2.2-2.1-2.7-.6-.2-1.3-.2-1.9-.2H60m50 2.5v52c-.1.1-.1.3-.2.4-.5 4-4 7.5-8.1 7.8-.2 0-.4.1-.5.2H18.8c-.5-.1-1-.1-1.5-.3-3.5-.9-5.9-3-6.9-6.5-.2-.5-.3-1.1-.4-1.6v-52c.1-.1.1-.3.2-.4.5-4 4-7.5 8.1-7.8.2 0 .4-.1.5-.2h82.4c.5.1.9.1 1.4.2 3.7 1 6.2 3.3 7.2 7 .1.5.1.9.2 1.2"/><path clip-path="url(#SVGID_2_)" fill="#ED1C24" d="M48.7 48.8c.1-3.3-2.9-6.1-6.1-6-2.8 0-6 2.2-6 6.1 0 3.9 3.1 6.1 6.1 6.1 3.4-.1 6.1-2.9 6-6.2m-6 11.9c-6.7 0-11.8-5.6-11.8-11.9C30.9 43 35.5 37 42.7 37c6.8 0 11.8 5.5 11.8 11.9-.1 6.8-5.6 11.8-11.8 11.8m0 7.9h-4.5c-2.5 0-5 1.7-5.6 4.3-.1.6-.2 1.3-.2 1.9v3.7c0 .4 0 .8-.1 1.2-.2 1.5-1.4 2.6-2.8 2.5-1.7-.1-2.8-1.3-2.8-2.8-.1-1 0-2.1 0-3.1 0-1.2 0-2.4.2-3.6.5-4.3 3.9-8.4 8.7-9.5 1-.2 2.1-.3 3.2-.3h8.1c3.6 0 6.6 1.2 9 3.8 1.9 2.1 2.9 4.5 3 7.3.1 1.8.1 3.5 0 5.3 0 1.6-1 2.7-2.5 2.9-1.4.2-2.8-.7-3.1-2-.1-.5-.2-1-.2-1.4v-4.7c0-2.7-2.5-5.3-5.5-5.4-1.7-.1-3.3-.1-4.9-.1zm36.9-22.3H67c-.4 0-.9 0-1.3-.2-1-.3-1.7-1.3-1.6-2.2.2-1.3.9-2 1.8-2.1.4-.1.8-.1 1.3-.1h24.9c.4 0 .8.1 1.3.1 1 .2 1.8 1.1 1.8 2.1s-.6 1.9-1.6 2.2c-.4.1-.9.2-1.3.2H79.6"/><path clip-path="url(#SVGID_2_)" fill="#FFF" d="M79.7 72.9h12.5c.4 0 .9 0 1.3.2 1 .3 1.7 1.2 1.6 2.3-.1 1-.8 1.8-1.8 2-.4.1-.8.1-1.3.1H67.1c-.7 0-1.4 0-2.1-.4-.7-.5-1.1-1.2-1-2.1.1-.9.6-1.7 1.5-1.9.4-.1.9-.2 1.3-.2h12.9m5.2-4.3h-7.5c-.7 0-1.4-.1-1.9-.6-.7-.6-1-1.4-.8-2.3.2-.9.7-1.4 1.6-1.6.4-.1.9-.2 1.3-.2h14.5c.4 0 .8.1 1.3.1 1 .2 1.7 1.1 1.8 2.2 0 1-.6 1.9-1.6 2.2-.4.1-.9.2-1.3.2h-7.4m0-9h-7.6c-.6 0-1.2-.1-1.7-.4-.8-.5-1.1-1.5-.9-2.4.2-.8.9-1.5 1.8-1.7.3 0 .6-.1 1-.1h15.6c1.1.1 2 1 2.1 2.1.1 1.1-.8 2.2-1.9 2.4-.3.1-.6 0-1 0-2.5.1-5 .1-7.4.1"/></svg>