<svg version="1.1" id="Layer_1" xmlns="http://www.w3.org/2000/svg" xmlns:xlink="http://www.w3.org/1999/xlink" x="0" y="0" viewBox="0 0 618 69" xml:space="preserve"><defs><path id="SVGID_1_" d="M9 9.4h599.6v50.1H9z"/></defs><clipPath id="SVGID_2_"><use xlink:href="#SVGID_1_" overflow="visible"/></clipPath><path clip-path="url(#SVGID_2_)" fill="none" stroke="#289643" stroke-width="4" stroke-linecap="round" d="M21.7 57.5h557.1"/><path clip-path="url(#SVGID_2_)" fill="none" stroke="#289643" stroke-width="7" stroke-linecap="round" stroke-linejoin="round" stroke-dasharray="0,13.909" d="M34.9 55.9h535.4"/><path clip-path="url(#SVGID_2_)" fill="none" stroke="#289643" stroke-width="7" stroke-linecap="round" stroke-linejoin="round" d="M577.3 55.9h0M21 55.9h0"/><path clip-path="url(#SVGID_2_)" fill="#289643" d="M37.2 36.1l-1.5-.6c-1.1-.5-2.2-1-3.3-1.2-.7-.1-1.4-.2-2.1 0-.7.2-1.4.4-2.1.9-1.1.8-1.9 1.9-2.3 3.4-.2.6-.3 1.2-.2 1.9.1-.1.2-.1.2-.2 1.9-1.5 3.9-2.3 6-2.8.6-.1 1.2-.2 1.8-.4.2 0 .5-.1.7-.1-.5.3-1.1.6-1.6.9-2.1 1-4.1 1.9-6.1 3-.6.3-1.1.7-1.6 1.3-1.2 1.2-2 2.9-2.7 4.7-.4 1.1-.7 2.3-.9 3.5 0 .1 0 .2-.1.3-.1-.1-.1-.3-.1-.4 0-.9-.1-1.7-.2-2.6-.2-1.2-.4-2.3-.8-3.4-.5-1.4-1.2-2.6-2.1-3.7-.3-.4-.6-.8-.9-1.1-.8-1.1-1.6-2.1-2.5-3.1-.9-1-1.7-2-2.5-3.1-.1-.1-.1-.2-.2-.3 1.4.9 2.7 1.9 3.9 3.1 1.2 1.2 2.3 2.7 3.2 4.3.1-.3.1-.5.2-.7.2-.9.2-1.8 0-2.6-.4-2.5-1.7-4.2-3.4-5.2-1-.6-2.2-.8-3.3-1-.6-.1-1.3-.1-1.9-.2l-1.5-.3c-.1 0-.3-.1-.4-.1v.1l.1.1c.2.5.4.9.6 1.4.2.7.5 1.3.7 2 .4 1.2.8 2.3 1.4 3.3.4.6.7 1.2 1.2 1.8.6.8 1.3 1.5 2.1 2 .5.3 1.1.5 1.7.6.4 0 .8 0 1.2-.2.8.9 1.3 2 1.7 3.3.5 1.6.8 3.3.9 5 .1 1.1.1 2.1.1 3.2v.3c-.1 0-.1-.1-.2-.1 0 .1 0 .2.1.3.5-.1.9-.1 1.4-.2.2-1.3.4-2.6.8-3.9.3-1.2.7-2.5 1.2-3.6.7-1.6 1.6-2.8 2.9-3.8.1 0 .1.1.2.1.7.6 1.5.9 2.3 1 .7 0 1.4-.1 2-.4 1.1-.5 2.2-1.2 3.2-2.2.5-.5 1-1.1 1.5-1.7.7-.9 1.4-1.8 2.2-2.6l.1-.1c-.5.2-.8.2-1.1.1m56-1.6c-.5-.2-1.1-.4-1.6-.6-1.2-.5-2.4-1.1-3.6-1.3-.8-.1-1.5-.2-2.3 0-.8.2-1.5.5-2.2 1-1.2.9-2 2.1-2.6 3.7-.2.7-.3 1.3-.3 2.1.1-.1.2-.1.3-.2 2-1.6 4.3-2.5 6.6-3 .7-.1 1.3-.3 2-.4.3 0 .5-.1.8-.1-.6.4-1.2.7-1.8 1-2.2 1-4.5 2.1-6.7 3.3-.6.4-1.2.8-1.8 1.4-1.3 1.4-2.2 3.1-2.9 5.1-.4 1.2-.8 2.5-1 3.8 0 .1-.1.2-.1.3 0-.3 0-.4-.1-.6 0-.9-.1-1.9-.3-2.8-.2-1.3-.5-2.5-.9-3.7-.5-1.6-1.3-2.9-2.3-4-.3-.4-.7-.8-1-1.3-.9-1.2-1.8-2.3-2.7-3.4-.9-1.1-1.8-2.2-2.8-3.3-.1-.1-.2-.2-.2-.3 1.5.9 2.9 2.1 4.3 3.4 1.3 1.3 2.5 2.9 3.5 4.7.1-.3.2-.5.2-.7.2-1 .2-1.9 0-2.9-.5-2.7-1.8-4.6-3.7-5.7-1.1-.7-2.4-.9-3.6-1.1-.7-.1-1.4-.1-2.1-.2-.5-.1-1.1-.2-1.6-.3-.2 0-.3-.1-.4-.2v.1l.1.1c.2.5.5 1 .7 1.6.3.7.5 1.5.8 2.2.4 1.3.9 2.5 1.5 3.6.4.7.8 1.4 1.3 2 .7.9 1.4 1.7 2.2 2.2.6.4 1.2.6 1.8.6.5 0 .9 0 1.4-.2.8 1 1.4 2.2 1.9 3.6.6 1.7.8 3.6 1 5.4.1 1.2.1 2.3.1 3.5v.3c-.1-.1-.1-.1-.2-.1 0 .1 0 .2.1.3.5-.1 1-.2 1.5-.2.2-1.4.5-2.9.8-4.3.3-1.4.8-2.7 1.3-3.9.8-1.7 1.8-3.1 3.1-4.1l.2.2c.8.7 1.6 1 2.5 1 .8 0 1.5-.2 2.2-.5 1.2-.6 2.4-1.3 3.4-2.4.6-.6 1.1-1.2 1.6-1.9.8-1 1.5-2 2.4-2.8l.1-.1c-.2.2-.5.2-.9.1m57.7-1.4c-.6-.2-1.2-.4-1.7-.7-1.3-.6-2.6-1.1-3.9-1.4-.8-.2-1.6-.2-2.4 0-.9.2-1.7.5-2.4 1.1-1.3.9-2.2 2.2-2.8 4-.2.7-.4 1.4-.3 2.2.1-.1.2-.1.3-.2 2.2-1.7 4.6-2.8 7.1-3.3.7-.2 1.4-.3 2.1-.4.3 0 .6-.1.8-.1-.6.4-1.3.8-1.9 1.1-2.4 1.1-4.9 2.3-7.3 3.6-.7.4-1.3.9-1.9 1.5-1.4 1.5-2.4 3.4-3.1 5.5-.5 1.3-.8 2.7-1.1 4.1 0 .1-.1.2-.1.3-.1-.2-.1-.3-.1-.5 0-1-.1-2-.3-3-.2-1.4-.5-2.7-.9-4-.6-1.7-1.4-3.1-2.5-4.4-.4-.4-.7-.9-1.1-1.4-.9-1.3-1.9-2.5-3-3.7l-3-3.6c-.1-.1-.2-.2-.3-.4 1.7 1 3.2 2.3 4.6 3.7 1.5 1.4 2.7 3.2 3.8 5.1.1-.3.2-.5.2-.8.2-1 .2-2.1 0-3.1-.5-2.9-2-4.9-4-6.2-1.2-.7-2.5-1-3.9-1.2-.8-.1-1.5-.1-2.3-.2l-1.8-.3c-.2 0-.3-.1-.5-.2v.1l.1.1c.2.6.5 1.1.7 1.7.3.8.6 1.6.8 2.4.4 1.4.9 2.7 1.6 3.9.4.8.9 1.5 1.4 2.1.7 1 1.5 1.8 2.4 2.4.6.4 1.3.6 2 .7.5 0 1 0 1.5-.2.9 1.1 1.5 2.4 2 3.9.6 1.9.9 3.9 1.1 5.9.1 1.3.2 2.5.1 3.8v.4l-.2-.2c0 .1 0 .2.1.3.6-.1 1.1-.2 1.7-.2.3-1.6.5-3.1.9-4.6.4-1.5.8-2.9 1.4-4.2.8-1.8 1.9-3.4 3.4-4.4l.2.2c.8.7 1.7 1.1 2.7 1.1.8 0 1.6-.2 2.4-.5 1.3-.6 2.6-1.4 3.7-2.6.6-.6 1.2-1.3 1.7-2 .8-1.1 1.7-2.2 2.6-3.1l.1-.1c0 .2-.4.1-.7 0m57.2-1.8c-.6-.2-1.3-.5-1.9-.7-1.4-.6-2.8-1.2-4.2-1.5-.9-.2-1.8-.2-2.6 0-.9.2-1.8.6-2.6 1.2-1.4 1-2.4 2.4-3 4.3-.2.8-.4 1.5-.3 2.4.1-.1.2-.1.3-.2 2.4-1.9 5-3 7.7-3.6.8-.2 1.5-.3 2.3-.4.3-.1.6-.1.9-.1-.7.4-1.4.8-2.1 1.1-2.6 1.2-5.2 2.5-7.8 3.9-.8.4-1.4.9-2.1 1.6-1.5 1.6-2.6 3.6-3.4 5.9-.5 1.4-.9 2.9-1.2 4.4 0 .1-.1.2-.1.4-.1-.2-.1-.3-.1-.5 0-1.1-.2-2.2-.3-3.3-.2-1.5-.5-2.9-1-4.3-.6-1.8-1.5-3.3-2.6-4.7-.4-.5-.8-1-1.1-1.5-1-1.4-2.1-2.7-3.2-3.9-1.1-1.3-2.2-2.6-3.2-3.9-.1-.1-.2-.3-.3-.4 1.8 1.1 3.4 2.5 5 4s2.9 3.4 4.1 5.5c.1-.3.2-.6.2-.8.2-1.1.2-2.2 0-3.4-.6-3.2-2.1-5.3-4.3-6.7-1.3-.8-2.7-1.1-4.2-1.2-.8-.1-1.6-.1-2.5-.2-.6-.1-1.3-.2-1.9-.4-.2 0-.3-.1-.5-.2v.1l.1.1c.3.6.5 1.2.8 1.8.3.8.6 1.7.9 2.6.5 1.5 1 2.9 1.7 4.2.4.8 1 1.6 1.5 2.3.8 1 1.6 2 2.6 2.6.7.4 1.4.7 2.1.7.5 0 1.1 0 1.6-.2 1 1.2 1.7 2.6 2.2 4.2.7 2 1 4.2 1.2 6.3.1 1.4.2 2.7.1 4.1v.4l-.2-.2c0 .1 0 .2.1.4.6-.1 1.2-.2 1.8-.2.3-1.7.6-3.3 1-5 .4-1.6.9-3.1 1.5-4.6.9-2 2.1-3.6 3.6-4.8l.2.2c.9.8 1.9 1.2 2.9 1.2.9 0 1.8-.2 2.6-.6 1.4-.6 2.8-1.5 4-2.8.7-.7 1.3-1.4 1.9-2.2.9-1.2 1.8-2.3 2.8-3.3l.1-.1c-.4.2-.8.1-1.1 0m56.6-1.6c-.7-.2-1.3-.5-2-.8-1.5-.6-3-1.3-4.5-1.6-.9-.2-1.9-.2-2.8 0-1 .2-1.9.6-2.8 1.3-1.5 1.1-2.6 2.6-3.2 4.6-.3.8-.4 1.7-.3 2.6.1-.1.2-.1.3-.2 2.5-2 5.3-3.2 8.2-3.8.8-.2 1.6-.3 2.5-.5.3-.1.6-.1 1-.1-.7.5-1.5.9-2.2 1.2-2.8 1.3-5.6 2.6-8.4 4.1-.8.4-1.5 1-2.2 1.7-1.6 1.7-2.8 3.9-3.6 6.4-.5 1.5-.9 3.1-1.3 4.8 0 .1-.1.3-.1.4-.1-.2-.1-.4-.1-.5 0-1.2-.2-2.3-.3-3.5-.2-1.6-.6-3.1-1.1-4.6-.7-1.9-1.6-3.6-2.8-5-.4-.5-.8-1-1.2-1.6-1.1-1.5-2.2-2.9-3.4-4.2-1.2-1.4-2.3-2.8-3.5-4.2-.1-.1-.2-.3-.3-.4 1.9 1.2 3.7 2.7 5.4 4.3 1.7 1.6 3.1 3.7 4.4 5.9.1-.4.2-.6.3-.9.2-1.2.2-2.4 0-3.6-.6-3.4-2.3-5.7-4.6-7.1-1.4-.9-2.9-1.2-4.5-1.3-.9-.1-1.8-.1-2.6-.2-.7-.1-1.4-.2-2-.4-.2 0-.4-.1-.6-.2v.1l.1.1c.3.6.6 1.3.8 1.9.3.9.6 1.8.9 2.8.5 1.6 1.1 3.1 1.8 4.5.5.9 1 1.7 1.6 2.5.8 1.1 1.7 2.1 2.8 2.8.7.4 1.5.7 2.3.8.6 0 1.1 0 1.7-.2 1 1.3 1.8 2.8 2.3 4.5.7 2.2 1 4.5 1.2 6.8.1 1.5.2 2.9.2 4.4v.4l-.2-.2c0 .1.1.3.1.4.7-.1 1.3-.2 1.9-.2.3-1.8.6-3.6 1-5.3.4-1.7.9-3.4 1.6-4.9 1-2.1 2.2-3.9 3.9-5.1.1.1.2.1.2.2.9.9 2 1.3 3.1 1.3 1 0 1.9-.2 2.8-.6 1.6-.7 3-1.7 4.3-3 .7-.7 1.4-1.5 2-2.3 1-1.2 1.9-2.5 3-3.5 0 0 .1-.1.1-.2-.4-.4-.8-.5-1.2-.6m57.2-1.6c-.7-.3-1.4-.5-2.1-.8-1.6-.7-3.2-1.4-4.8-1.7-1-.2-2-.2-3 0-1.1.2-2.1.6-3 1.3-1.6 1.1-2.7 2.7-3.4 4.9-.3.9-.5 1.8-.4 2.8.1-.1.2-.2.3-.2 2.7-2.1 5.7-3.4 8.8-4.1.9-.2 1.7-.4 2.6-.5.3-.1.7-.1 1-.1-.8.5-1.6.9-2.4 1.3-3 1.4-6 2.8-8.9 4.4-.9.5-1.7 1.1-2.4 1.8-1.7 1.8-3 4.2-3.9 6.8-.6 1.6-1 3.3-1.3 5.1 0 .1-.1.3-.1.4-.1-.2-.1-.4-.1-.6 0-1.3-.2-2.5-.3-3.7-.2-1.7-.6-3.3-1.1-4.9-.7-2.1-1.8-3.8-3-5.4-.4-.5-.9-1.1-1.3-1.7-1.2-1.6-2.4-3-3.6-4.5-1.2-1.5-2.5-3-3.7-4.4-.1-.1-.2-.3-.3-.4 2 1.3 3.9 2.8 5.7 4.6 1.8 1.8 3.3 3.9 4.7 6.3.1-.4.2-.7.3-.9.3-1.3.3-2.6 0-3.8-.7-3.6-2.4-6.1-4.9-7.6-1.5-.9-3.1-1.2-4.8-1.4-.9-.1-1.9-.1-2.8-.2-.7-.1-1.4-.3-2.2-.4-.2 0-.4-.1-.6-.2v.1l.1.1.9 2.1c.4 1 .7 2 1 3 .5 1.7 1.1 3.3 2 4.9.5.9 1.1 1.8 1.7 2.6.9 1.2 1.8 2.2 3 2.9.8.5 1.6.8 2.4.8.6 0 1.2 0 1.8-.2 1.1 1.4 1.9 3 2.5 4.8.8 2.3 1.1 4.8 1.3 7.3.1 1.6.2 3.1.2 4.7v.5l-.2-.2c0 .1.1.3.1.4.7-.1 1.4-.2 2-.2.3-1.9.6-3.8 1.1-5.7.5-1.8 1-3.6 1.8-5.2 1-2.3 2.4-4.1 4.2-5.5.1.1.2.1.2.2 1 .9 2.1 1.4 3.3 1.4 1 0 2-.2 3-.6 1.7-.7 3.2-1.8 4.6-3.2.8-.8 1.5-1.6 2.1-2.5 1-1.3 2.1-2.7 3.3-3.8 0 0 .1-.1.1-.2-.6-.5-1.1-.6-1.5-.7m56.9-1.6c-.8-.3-1.5-.6-2.3-.9-1.7-.7-3.4-1.5-5.1-1.8-1.1-.2-2.1-.2-3.2 0s-2.2.7-3.2 1.4c-1.6 1.2-2.9 2.9-3.6 5.2-.3.9-.5 1.9-.4 2.9.1-.1.3-.2.4-.3 2.9-2.3 6-3.6 9.3-4.3.9-.2 1.9-.4 2.8-.5.4-.1.7-.1 1.1-.1-.8.5-1.7 1-2.5 1.4-3.2 1.5-6.4 3-9.5 4.7-.9.5-1.8 1.1-2.5 1.9-1.9 1.9-3.1 4.4-4.1 7.2-.6 1.7-1.1 3.5-1.4 5.4 0 .2-.1.3-.1.4-.1-.2-.1-.4-.1-.6 0-1.3-.2-2.7-.4-4-.2-1.8-.6-3.5-1.2-5.2-.7-2.2-1.9-4.1-3.2-5.7-.5-.6-.9-1.2-1.4-1.8-1.2-1.7-2.5-3.2-3.9-4.8-1.3-1.6-2.6-3.1-3.9-4.7-.1-.1-.2-.3-.3-.5 2.2 1.3 4.2 3 6.1 4.9 1.9 1.9 3.5 4.2 5 6.7.1-.4.2-.7.3-1 .3-1.4.3-2.7 0-4.1-.7-3.9-2.6-6.5-5.3-8.1-1.6-1-3.3-1.3-5.1-1.5-1-.1-2-.1-3-.3-.8-.1-1.5-.3-2.3-.4-.2 0-.4-.2-.6-.2v.2l.1.1c.3.7.7 1.4.9 2.2.4 1 .7 2.1 1.1 3.1.6 1.8 1.2 3.6 2.1 5.2.5 1 1.2 1.9 1.8 2.8.9 1.3 1.9 2.4 3.2 3.1.8.5 1.7.8 2.6.9.6 0 1.3 0 1.9-.2 1.2 1.5 2 3.2 2.6 5 .8 2.5 1.2 5.1 1.4 7.7.1 1.7.2 3.3.2 5v.5c-.1-.1-.2-.1-.2-.2 0 .1.1.3.1.4.7-.1 1.5-.2 2.2-.2.3-2 .7-4.1 1.2-6 .5-1.9 1.1-3.8 1.9-5.5 1.1-2.4 2.5-4.4 4.4-5.8.1.1.2.1.3.2 1.1 1 2.3 1.4 3.5 1.5 1.1 0 2.1-.2 3.2-.7 1.8-.8 3.4-1.9 4.9-3.3.8-.8 1.5-1.7 2.3-2.6 1.1-1.4 2.2-2.8 3.5-4 .1 0 .1-.1.1-.2-.8-.3-1.3-.4-1.7-.5m56.5-1.6c-.8-.3-1.6-.6-2.4-1-1.8-.8-3.6-1.6-5.4-1.9-1.1-.2-2.3-.3-3.4 0-1.2.2-2.3.7-3.4 1.5-1.7 1.3-3.1 3.1-3.8 5.5-.3 1-.5 2-.4 3.1.1-.1.3-.2.4-.3 3.1-2.4 6.4-3.8 9.9-4.6 1-.2 2-.4 2.9-.6.4-.1.8-.1 1.2-.1-.9.6-1.8 1.1-2.7 1.5-3.4 1.6-6.7 3.2-10.1 5-1 .5-1.9 1.2-2.7 2.1-2 2-3.3 4.7-4.3 7.6-.6 1.8-1.1 3.8-1.5 5.7 0 .2-.1.3-.1.5-.1-.2-.1-.4-.1-.7 0-1.4-.2-2.8-.4-4.2-.3-1.9-.7-3.7-1.3-5.5-.8-2.3-2-4.3-3.4-6-.5-.6-1-1.2-1.5-1.9-1.3-1.8-2.7-3.4-4.1-5.1-1.4-1.6-2.8-3.3-4.1-5-.1-.2-.2-.3-.3-.5 2.3 1.4 4.4 3.2 6.4 5.2s3.7 4.4 5.3 7.1c.1-.4.2-.7.3-1.1.3-1.4.3-2.9 0-4.3-.7-4.1-2.7-6.8-5.6-8.6-1.7-1-3.5-1.4-5.4-1.6-1.1-.1-2.1-.1-3.2-.3-.8-.1-1.6-.3-2.4-.5-.2 0-.4-.2-.7-.2v.1l.1.1c.3.8.7 1.5 1 2.3.4 1.1.8 2.2 1.1 3.3.6 1.9 1.3 3.8 2.2 5.5.6 1.1 1.2 2 1.9 3 1 1.3 2.1 2.5 3.4 3.3.9.5 1.8.9 2.7.9.7 0 1.4 0 2-.3 1.2 1.5 2.1 3.3 2.8 5.3.9 2.6 1.3 5.4 1.5 8.2.1 1.8.2 3.5.2 5.3v.5c-.1-.1-.2-.1-.2-.2 0 .2.1.3.1.5.8-.1 1.5-.2 2.3-.3.4-2.2.7-4.3 1.2-6.4.5-2 1.1-4 2-5.9 1.2-2.6 2.7-4.6 4.7-6.1.1.1.2.2.3.2 1.1 1 2.4 1.5 3.8 1.6 1.1 0 2.3-.2 3.3-.7 1.9-.8 3.6-2 5.2-3.5.9-.8 1.6-1.8 2.4-2.8 1.2-1.5 2.3-3 3.7-4.2.1-.1.1-.1.1-.2-.5-.1-1-.1-1.5-.3m58.2-1.6c-.9-.3-1.7-.6-2.5-1-1.9-.8-3.7-1.7-5.7-2-1.2-.2-2.4-.3-3.6 0-1.3.3-2.5.8-3.6 1.6-1.8 1.4-3.2 3.3-4 5.8-.3 1-.5 2.1-.4 3.3.1-.1.3-.2.4-.3 3.2-2.5 6.7-4 10.4-4.8 1-.2 2.1-.4 3.1-.6.4-.1.8-.1 1.2-.1-.9.6-1.9 1.1-2.8 1.6-3.6 1.7-7.1 3.3-10.6 5.2-1 .6-2 1.3-2.8 2.2-2.1 2.2-3.5 4.9-4.6 8.1-.7 2-1.2 4-1.6 6 0 .2-.1.3-.1.5-.1-.2-.1-.5-.1-.7 0-1.5-.2-3-.4-4.4-.3-2-.7-3.9-1.4-5.8-.8-2.5-2.1-4.5-3.6-6.4-.5-.6-1-1.3-1.5-2-1.4-1.9-2.8-3.6-4.3-5.4-1.5-1.7-2.9-3.5-4.4-5.3-.1-.2-.2-.3-.4-.5 2.4 1.5 4.7 3.4 6.8 5.4 2.1 2.1 3.9 4.6 5.6 7.5.1-.4.3-.8.3-1.1.3-1.5.3-3 0-4.6-.8-4.3-2.9-7.2-5.9-9-1.8-1.1-3.7-1.5-5.7-1.7l-3.3-.3c-.9-.1-1.7-.3-2.6-.5-.2 0-.5-.2-.7-.3v.1s.1.1.1.2c.4.8.7 1.6 1 2.5.4 1.2.8 2.3 1.2 3.5.6 2 1.4 4 2.3 5.8.6 1.1 1.3 2.2 2 3.1 1 1.4 2.2 2.7 3.6 3.5.9.6 1.9.9 2.9 1 .7 0 1.4 0 2.1-.3 1.3 1.6 2.3 3.5 3 5.6.9 2.7 1.3 5.7 1.6 8.6.1 1.8.2 3.7.2 5.6v.5c-.1-.1-.2-.2-.3-.2 0 .2.1.3.1.5l2.4-.3c.4-2.3.8-4.5 1.3-6.8.5-2.2 1.2-4.2 2.1-6.2 1.2-2.7 2.8-4.9 4.9-6.5.1.1.2.2.3.2 1.2 1.1 2.5 1.6 4 1.7 1.2 0 2.4-.3 3.5-.8 2-.9 3.8-2.1 5.5-3.7.9-.9 1.7-1.9 2.5-2.9 1.2-1.6 2.4-3.2 3.9-4.5.1-.1.1-.1.1-.2-.5-.1-1-.2-1.5-.4m56.4-1.6c-.9-.3-1.8-.7-2.7-1.1-2-.9-3.9-1.8-6-2.2-1.3-.2-2.5-.3-3.8 0-1.3.3-2.6.8-3.7 1.7-1.9 1.4-3.4 3.4-4.3 6.1-.3 1.1-.6 2.2-.4 3.4.2-.1.3-.2.4-.3 3.4-2.7 7.1-4.2 11-5.1l3.3-.6c.4-.1.9-.1 1.3-.2-1 .6-2 1.2-3 1.6-3.7 1.8-7.5 3.5-11.2 5.5-1.1.6-2.1 1.3-3 2.3-2.2 2.3-3.7 5.2-4.8 8.5-.7 2.1-1.3 4.2-1.7 6.4 0 .2-.1.3-.1.5-.1-.2-.1-.5-.1-.7 0-1.6-.2-3.1-.4-4.7-.3-2.1-.8-4.1-1.4-6.1-.9-2.6-2.2-4.8-3.8-6.7-.6-.7-1.1-1.4-1.6-2.1-1.4-2-3-3.8-4.5-5.6-1.5-1.8-3.1-3.7-4.6-5.6-.1-.2-.3-.4-.4-.5 2.6 1.6 4.9 3.5 7.1 5.7 2.3 2.2 4.1 4.9 5.8 7.9.1-.5.3-.8.3-1.2.3-1.6.3-3.2 0-4.8-.8-4.5-3-7.6-6.2-9.5-1.9-1.1-3.9-1.5-6-1.8-1.2-.1-2.3-.2-3.5-.3-.9-.1-1.8-.3-2.7-.5-.3-.1-.5-.2-.7-.3v.1c0 .1.1.1.1.2.4.9.8 1.7 1.1 2.6.4 1.2.9 2.5 1.3 3.7.7 2.1 1.4 4.2 2.5 6.1.6 1.2 1.4 2.3 2.1 3.3 1.1 1.5 2.3 2.8 3.7 3.7 1 .6 2 1 3 1 .8 0 1.5 0 2.2-.3 1.4 1.7 2.4 3.7 3.1 5.9 1 2.9 1.4 6 1.6 9.1.2 1.9.2 3.9.2 5.9v.6c-.1-.1-.2-.2-.3-.2 0 .2.1.3.1.5.9-.2 1.7-.3 2.6-.3.4-2.4.8-4.8 1.4-7.1.6-2.3 1.3-4.5 2.2-6.5 1.3-2.8 3-5.2 5.2-6.8l.3.3c1.3 1.2 2.6 1.7 4.2 1.7 1.3 0 2.5-.3 3.7-.8 2.1-.9 4-2.2 5.7-3.9 1-.9 1.8-2 2.7-3.1 1.3-1.7 2.6-3.3 4.1-4.7l.2-.2c-.5-.2-1.1-.3-1.6-.5m57-1.6c-.9-.3-1.9-.7-2.8-1.1-2.1-.9-4.1-1.9-6.3-2.3-1.3-.3-2.6-.3-4 0s-2.7.8-3.9 1.8c-2 1.5-3.6 3.6-4.5 6.4-.4 1.1-.6 2.3-.5 3.6.2-.1.3-.2.4-.3 3.6-2.8 7.5-4.5 11.5-5.3 1.1-.2 2.3-.5 3.4-.7.4-.1.9-.1 1.3-.2-1 .7-2.1 1.2-3.1 1.7-3.9 1.8-7.9 3.7-11.7 5.8-1.1.6-2.2 1.4-3.1 2.4-2.3 2.4-3.9 5.5-5.1 8.9-.7 2.2-1.3 4.4-1.8 6.7 0 .2-.1.4-.1.5-.1-.3-.1-.5-.2-.8 0-1.7-.2-3.3-.5-4.9-.3-2.2-.8-4.3-1.5-6.4-.9-2.7-2.3-5-4-7-.6-.7-1.2-1.4-1.7-2.2-1.5-2.1-3.1-4-4.8-5.9-1.6-1.9-3.2-3.9-4.8-5.8-.1-.2-.3-.4-.4-.6 2.7 1.6 5.1 3.7 7.5 6 2.4 2.3 4.3 5.1 6.1 8.3.1-.5.3-.9.4-1.2.3-1.7.3-3.4 0-5-.9-4.8-3.2-8-6.5-10-2-1.2-4.1-1.6-6.3-1.9-1.2-.1-2.5-.2-3.7-.3-1-.1-1.9-.3-2.8-.5-.3-.1-.5-.2-.8-.3v.1l.2.2 1.2 2.7c.5 1.3.9 2.6 1.3 3.9.7 2.2 1.5 4.4 2.6 6.4.7 1.2 1.4 2.4 2.2 3.5 1.2 1.6 2.4 2.9 3.9 3.9 1 .6 2.1 1 3.2 1.1.8 0 1.6 0 2.4-.3 1.4 1.8 2.5 3.9 3.3 6.2 1 3 1.5 6.2 1.7 9.5.2 2 .2 4.1.2 6.2v.6c-.1-.1-.2-.2-.3-.2 0 .2.1.4.1.5.9-.2 1.8-.3 2.7-.3.4-2.5.9-5 1.5-7.5.6-2.4 1.3-4.7 2.3-6.8 1.4-3 3.1-5.4 5.5-7.2l.3.3c1.3 1.2 2.8 1.8 4.4 1.8 1.3 0 2.6-.3 3.9-.8 2.2-1 4.2-2.3 6-4.1 1-1 1.9-2.1 2.8-3.3 1.4-1.7 2.7-3.5 4.3-4.9.1-.1.1-.2.2-.2-.5-.4-1-.5-1.6-.7"/></svg>