<svg version="1.1" id="Layer_1" xmlns="http://www.w3.org/2000/svg" xmlns:xlink="http://www.w3.org/1999/xlink" x="0" y="0" viewBox="0 0 120 150" xml:space="preserve"><defs><path id="SVGID_1_" d="M24 6.7h70.7V142H24z"/></defs><clipPath id="SVGID_2_"><use xlink:href="#SVGID_1_" overflow="visible"/></clipPath><path clip-path="url(#SVGID_2_)" fill="#FFF" d="M30 58.1v42.1c.1 1.7 1.3 3 3 3.3.5.1.9.1 1.4.1h49.9c.5 0 .9 0 1.4-.1 1.4-.2 2.3-1 2.8-2.3.2-.6.2-1.3.2-2V15.9c-.1-1.7-1.3-3-3-3.3-.5-.1-.9-.1-1.4-.1H34.4c-.5 0-.9 0-1.4.1-1.3.2-2.3.9-2.7 2.2-.2.6-.2 1.3-.2 2-.1 13.8-.1 27.6-.1 41.3m2.6-51.4H86c.2.1.3.1.5.2 4.1.5 7.7 4.1 8 8.3 0 .2.1.4.2.5v84.7c-.1.5-.1 1-.3 1.5-.9 3.6-3.1 6-6.7 7.1-.5.2-1.1.3-1.6.4H32.6c-.2-.1-.3-.1-.5-.2-4.1-.5-7.7-4.1-8-8.3 0-.2-.1-.4-.2-.5V15.8c.1-.5.1-1 .2-1.4 1-3.8 3.4-6.3 7.2-7.4.6-.1.9-.2 1.3-.3"/><path clip-path="url(#SVGID_2_)" fill="#FFF" d="M33.2 123.1V108c0-.5.1-1.1.2-1.6.3-1.2 1.5-2 2.8-1.9 1.2.1 2.2.9 2.5 2.2.1.5.2 1 .2 1.5v30.1c0 .9 0 1.7-.5 2.5-.6.9-1.5 1.3-2.5 1.2-1.1-.1-2-.7-2.3-1.9-.1-.5-.2-1.1-.2-1.6-.2-5.1-.2-10.2-.2-15.4m46.6 0V108c0-.5.1-1.1.2-1.6.3-1.2 1.5-2 2.8-1.9 1.2.1 2.2.9 2.5 2.2.1.5.2 1 .2 1.5v30.1c0 .9 0 1.7-.5 2.5-.6.9-1.5 1.3-2.5 1.2-1.1-.1-2-.7-2.3-1.9-.1-.5-.2-1.1-.2-1.6-.2-5.1-.2-10.2-.2-15.4"/><path fill="#ED1C24" d="M36.5 20.3h45.1v45.1H36.5z"/></svg>