<?xml version="1.0" encoding="utf-8"?>
<!-- Generator: Adobe Illustrator 17.1.0, SVG Export Plug-In . SVG Version: 6.00 Build 0)  -->
<!DOCTYPE svg PUBLIC "-//W3C//DTD SVG 1.1//EN" "http://www.w3.org/Graphics/SVG/1.1/DTD/svg11.dtd">
<svg version="1.1" id="Layer_1" xmlns="http://www.w3.org/2000/svg" xmlns:xlink="http://www.w3.org/1999/xlink" x="0px" y="0px"
	 viewBox="0 0 120 120" enable-background="new 0 0 120 120" xml:space="preserve">
<g>
	<defs>
		<rect id="SVGID_1_" x="18.6" y="18.6" width="82.7" height="82.7"/>
	</defs>
	<clipPath id="SVGID_2_">
		<use xlink:href="#SVGID_1_"  overflow="visible"/>
	</clipPath>
	<path clip-path="url(#SVGID_2_)" fill="#FFFFFF" d="M88.3,29.8c16.7,15.6,17.5,41.8,1.9,58.5c-15.6,16.7-41.8,17.5-58.5,1.9
		C15,74.6,14.2,48.4,29.8,31.7C45.4,15,71.6,14.2,88.3,29.8"/>
	<path clip-path="url(#SVGID_2_)" fill="#ED1C24" d="M57.6,74.8c5.8-7.3,16.3-16.6,16.3-26c0-8.6-6.7-14.1-15-14.1
		c-8.3,0-15.9,6.8-15.9,15.4c0,2.6,1.7,4.9,4.9,4.9c6.5,0,2.8-11,10.6-11c2.8,0,4.9,2.4,4.9,5.2c0,2.4-1.2,4.5-2.4,6.3
		C55.8,63,49.7,69.1,44.1,75.9c-0.7,0.8-1.6,2-1.6,3.5c0,3.1,2.3,4.5,5.3,4.5h22.6c2.6,0,4.9-1.4,4.9-4.5c0-3.1-2.3-4.5-5.3-4.5
		H57.6z"/>
</g>
</svg>
