<?xml version="1.0" encoding="utf-8"?>
<!-- Generator: Adobe Illustrator 17.1.0, SVG Export Plug-In . SVG Version: 6.00 Build 0)  -->
<!DOCTYPE svg PUBLIC "-//W3C//DTD SVG 1.1//EN" "http://www.w3.org/Graphics/SVG/1.1/DTD/svg11.dtd">
<svg version="1.1" id="Layer_1" xmlns="http://www.w3.org/2000/svg" xmlns:xlink="http://www.w3.org/1999/xlink" x="0px" y="0px"
	 viewBox="0 0 120 120" enable-background="new 0 0 120 120" xml:space="preserve">
<g>
	<defs>
		<rect id="SVGID_1_" x="10" y="35.1" width="100" height="49.9"/>
	</defs>
	<clipPath id="SVGID_2_">
		<use xlink:href="#SVGID_1_"  overflow="visible"/>
	</clipPath>
	<path clip-path="url(#SVGID_2_)" fill="#FFFFFF" d="M56.5,79.7c0,3.4,2.2,5.3,5.1,5.3c2.9,0,5.1-1.9,5.1-5.3V40.8
		c0-2.7-1.6-4.8-4.6-4.8h-9.7c-2.9,0-4.6,2.3-4.6,4.7c0,2.3,1.4,4.7,4.6,4.7h4V79.7z M25.2,75.6c5.8-7.3,16.4-16.7,16.4-26.2
		c0-8.7-6.8-14.2-15.2-14.2c-8.4,0-16.1,6.9-16.1,15.5c0,2.7,1.7,5,5,5c6.6,0,2.8-11.1,10.7-11.1c2.8,0,4.9,2.5,4.9,5.3
		c0,2.5-1.2,4.6-2.4,6.4c-5.2,7.5-11.3,13.7-17,20.4c-0.7,0.8-1.6,2-1.6,3.5c0,3.1,2.3,4.5,5.3,4.5h22.8c2.6,0,4.9-1.4,4.9-4.5
		s-2.3-4.5-5.3-4.5H25.2z"/>
	<path clip-path="url(#SVGID_2_)" fill="#ED1C24" d="M87.8,56h-9.9c-2.5,0-4.1,1.6-4.1,4.1s1.6,4.1,4.1,4.1h9.9v9.9
		c0,2.5,1.6,4.1,4.1,4.1c2.5,0,4.1-1.6,4.1-4.1v-9.9h9.9c2.5,0,4.1-1.6,4.1-4.1s-1.6-4.1-4.1-4.1H96v-9.9c0-2.5-1.6-4.1-4.1-4.1
		c-2.5,0-4.1,1.6-4.1,4.1V56z"/>
</g>
</svg>
