<?xml version="1.0" encoding="utf-8"?>
<!-- Generator: Adobe Illustrator 17.1.0, SVG Export Plug-In . SVG Version: 6.00 Build 0)  -->
<!DOCTYPE svg PUBLIC "-//W3C//DTD SVG 1.1//EN" "http://www.w3.org/Graphics/SVG/1.1/DTD/svg11.dtd">
<svg version="1.1" id="Layer_1" xmlns="http://www.w3.org/2000/svg" xmlns:xlink="http://www.w3.org/1999/xlink" x="0px" y="0px"
	 viewBox="0 0 120 120" enable-background="new 0 0 120 120" xml:space="preserve">
<g>
	<defs>
		<rect id="SVGID_1_" x="18.6" y="18.6" width="82.7" height="82.7"/>
	</defs>
	<clipPath id="SVGID_2_">
		<use xlink:href="#SVGID_1_"  overflow="visible"/>
	</clipPath>
	<path clip-path="url(#SVGID_2_)" d="M88.3,29.8c16.7,15.6,17.5,41.8,1.9,58.5c-15.6,16.7-41.8,17.5-58.5,1.9
		C15,74.6,14.2,48.4,29.8,31.7C45.4,15,71.6,14.2,88.3,29.8"/>
	<path clip-path="url(#SVGID_2_)" fill="#ED1C24" d="M57.8,34.8c-7.5,0-14.8,5.7-14.8,11c0,2.5,1.6,5,4.4,5c4.6,0,3.7-6.6,10.2-6.6
		c3,0,4.9,2,4.9,4.5c0,7.5-9.6,2.7-9.6,9.8c0,8,11.5,1,11.5,10.5c0,3.6-2.8,6.3-6.4,6.3c-7.7,0-6.6-7.9-11.2-7.9
		c-2.4,0-5.2,1.9-5.2,4.5c0,5.4,6.2,12.7,16.3,12.7c9.6,0,17.1-6.8,17.1-15c0-5.4-3.4-9.9-8.3-12.1c3.7-2.4,5.6-6.1,5.6-10.4
		C72.3,42,67.6,34.8,57.8,34.8"/>
</g>
</svg>
