<?xml version="1.0" encoding="utf-8"?>
<!-- Generator: Adobe Illustrator 17.1.0, SVG Export Plug-In . SVG Version: 6.00 Build 0)  -->
<!DOCTYPE svg PUBLIC "-//W3C//DTD SVG 1.1//EN" "http://www.w3.org/Graphics/SVG/1.1/DTD/svg11.dtd">
<svg version="1.1" id="Layer_1" xmlns="http://www.w3.org/2000/svg" xmlns:xlink="http://www.w3.org/1999/xlink" x="0px" y="0px"
	 viewBox="0 0 120 120" enable-background="new 0 0 120 120" xml:space="preserve">
<g>
	<defs>
		<rect id="SVGID_1_" x="8" y="24.3" width="102.8" height="70.7"/>
	</defs>
	<clipPath id="SVGID_2_">
		<use xlink:href="#SVGID_1_"  overflow="visible"/>
	</clipPath>
	<path clip-path="url(#SVGID_2_)" fill="#FFFFFF" d="M59.4,30.3c-13.6,0-27.3,0-40.9,0c-0.4,0-0.8,0-1.2,0c-1.7,0.1-3,1.3-3.3,3
		c-0.1,0.5-0.1,0.9-0.1,1.4c0,16.6,0,33.2,0,49.9c0,0.5,0,0.9,0.1,1.4c0.2,1.4,1,2.4,2.3,2.8c0.6,0.2,1.3,0.2,2,0.2
		c27.4,0,54.9,0,82.3,0c0.3,0,0.7,0,1,0c1.7-0.1,3-1.3,3.3-3c0.1-0.5,0.1-0.9,0.1-1.4c0-16.6,0-33.2,0-49.9c0-0.5,0-0.9-0.1-1.4
		c-0.2-1.3-0.9-2.3-2.2-2.7c-0.6-0.2-1.3-0.2-2-0.2C86.9,30.3,73.1,30.3,59.4,30.3 M110.8,33v53.4c-0.1,0.2-0.1,0.3-0.2,0.5
		c-0.5,4.1-4.1,7.7-8.3,8c-0.2,0-0.4,0.1-0.5,0.2H17c-0.5-0.1-1-0.1-1.5-0.3c-3.6-0.9-6-3.1-7.1-6.7c-0.2-0.5-0.3-1.1-0.4-1.6V33
		c0.1-0.2,0.1-0.3,0.2-0.5c0.5-4.1,4.1-7.7,8.3-8c0.2,0,0.4-0.1,0.5-0.2h84.7c0.5,0.1,1,0.1,1.4,0.2c3.8,1,6.3,3.4,7.4,7.2
		C110.6,32.2,110.7,32.6,110.8,33"/>
	<path clip-path="url(#SVGID_2_)" fill="#FFFFFF" d="M47,44.2c0-2.2-1.9-4-4-3.9c-1.8,0-3.9,1.4-3.9,4c0,2.5,2,4,4,4
		C45.3,48.2,47.1,46.3,47,44.2 M43.1,51.9c-4.4,0-7.7-3.6-7.7-7.8c0-3.8,3-7.7,7.8-7.7c4.5,0,7.7,3.6,7.7,7.8
		C50.8,48.7,47.2,52,43.1,51.9"/>
	<path clip-path="url(#SVGID_2_)" fill="#FFFFFF" d="M43.1,57.1c-1,0-2,0-2.9,0c-1.6,0-3.3,1.1-3.7,2.8c-0.1,0.4-0.1,0.8-0.1,1.3
		c0,0.8,0,1.6,0,2.4c0,0.3,0,0.5-0.1,0.8c-0.1,1-0.9,1.7-1.9,1.7c-1.1-0.1-1.8-0.9-1.9-1.8c0-0.7,0-1.4,0-2c0-0.8,0-1.6,0.1-2.4
		c0.3-2.8,2.5-5.5,5.7-6.2c0.7-0.2,1.4-0.2,2.1-0.2c1.8,0,3.5,0,5.3,0c2.3,0,4.3,0.8,5.9,2.5c1.2,1.4,1.9,3,2,4.8c0,1.1,0,2.3,0,3.4
		c0,1-0.7,1.7-1.6,1.9c-0.9,0.2-1.8-0.4-2.1-1.3c-0.1-0.3-0.1-0.6-0.1-0.9c0-1,0-2,0-3.1c0-1.8-1.6-3.5-3.6-3.5
		C45.2,57.1,44.2,57.1,43.1,57.1L43.1,57.1z"/>
	<path clip-path="url(#SVGID_2_)" fill="#FFFFFF" d="M70,67.5c-18.8,0-41.8,0-47.1,0c-0.4,0-0.9,0.1-1.3,0.1c-1,0.1-1.7,0.8-1.9,2.2
		c-0.1,0.9,0.6,2,1.6,2.3c0.4,0.1,0.9,0.2,1.4,0.2c4.3,0,8.6,0,12.9,0c2.4,0,19.2,0,34.3,0V67.5z M98.2,69.8c0-1.1-0.8-2-1.8-2.2
		c-0.4-0.1-0.9-0.1-1.3-0.1c-1.7,0-5.1,0-9.6,0v4.8c5,0,8.7,0,9.7,0c0.5,0,0.9,0,1.4-0.2C97.6,71.8,98.2,70.8,98.2,69.8"/>
	<path clip-path="url(#SVGID_2_)" fill="#ED1C24" d="M77.7,56.5c-1,0-2.1,0-3.1,0c-1.8,0-3.5,1.2-3.9,2.9c-0.1,0.4-0.1,0.9-0.1,1.3
		c0,0.8,0,22.1,0,23c0,0.3,0,0.5-0.1,0.8c-0.2,1-1,1.8-2,1.7c-1.2-0.1-1.9-0.9-2-1.9c0-0.7,0-1.4,0-2.1c0-0.8,0-22.1,0.1-22.9
		c0.3-2.9,2.7-5.8,6.1-6.5c0.7-0.2,1.5-0.2,2.2-0.2c1.9,0,3.8,0,5.7,0c2.5,0,4.6,0.8,6.3,2.6c1.3,1.4,2,3.1,2.1,5
		c0.1,1.2,0,22.9,0,24.1c0,1.1-0.7,1.8-1.7,2c-0.9,0.2-2-0.5-2.2-1.4c-0.1-0.3-0.1-0.7-0.1-1c0-1.1,0-22.6,0-23.7
		c0-1.9-1.7-3.7-3.9-3.7C80,56.5,78.9,56.5,77.7,56.5L77.7,56.5z"/>
	<path clip-path="url(#SVGID_2_)" fill="none" stroke="#ED1C24" d="M77.7,56.5c-1,0-2.1,0-3.1,0c-1.8,0-3.5,1.2-3.9,2.9
		c-0.1,0.4-0.1,0.9-0.1,1.3c0,0.8,0,22.1,0,23c0,0.3,0,0.5-0.1,0.8c-0.2,1-1,1.8-2,1.7c-1.2-0.1-1.9-0.9-2-1.9c0-0.7,0-1.4,0-2.1
		c0-0.8,0-22.1,0.1-22.9c0.3-2.9,2.7-5.8,6.1-6.5c0.7-0.2,1.5-0.2,2.2-0.2c1.9,0,3.8,0,5.7,0c2.5,0,4.6,0.8,6.3,2.6
		c1.3,1.4,2,3.1,2.1,5c0.1,1.2,0,22.9,0,24.1c0,1.1-0.7,1.8-1.7,2c-0.9,0.2-2-0.5-2.2-1.4c-0.1-0.3-0.1-0.7-0.1-1
		c0-1.1,0-22.6,0-23.7c0-1.9-1.7-3.7-3.9-3.7C80,56.5,78.9,56.5,77.7,56.5L77.7,56.5z"/>
	<path clip-path="url(#SVGID_2_)" fill="#ED1C24" d="M81.7,44.2c0-2.2-1.9-4-4-3.9c-1.8,0-3.9,1.4-3.9,4c0,2.5,2,4,4,4
		C79.9,48.2,81.7,46.3,81.7,44.2 M77.7,51.9c-4.4,0-7.7-3.6-7.7-7.8c0-3.8,3-7.7,7.8-7.7c4.5,0,7.7,3.6,7.7,7.8
		C85.4,48.7,81.8,52,77.7,51.9"/>
</g>
</svg>
