<?xml version="1.0" encoding="utf-8"?>
<!-- Generator: Adobe Illustrator 17.1.0, SVG Export Plug-In . SVG Version: 6.00 Build 0)  -->
<!DOCTYPE svg PUBLIC "-//W3C//DTD SVG 1.1//EN" "http://www.w3.org/Graphics/SVG/1.1/DTD/svg11.dtd">
<svg version="1.1" id="Layer_1" xmlns="http://www.w3.org/2000/svg" xmlns:xlink="http://www.w3.org/1999/xlink" x="0px" y="0px"
	 viewBox="0 0 120 120" enable-background="new 0 0 120 120" xml:space="preserve">
<g>
	<defs>
		<rect id="SVGID_1_" x="25" y="10" width="68.8" height="100"/>
	</defs>
	<clipPath id="SVGID_2_">
		<use xlink:href="#SVGID_1_"  overflow="visible"/>
	</clipPath>
	<path clip-path="url(#SVGID_2_)" fill="#FFFFFF" d="M87.9,60c0-13.3,0-26.6,0-39.8c0-0.4,0-0.8,0-1.2c-0.1-1.6-1.3-2.9-2.9-3.2
		c-0.4-0.1-0.9-0.1-1.4-0.1c-16.2,0-32.4,0-48.5,0c-0.5,0-0.9,0-1.4,0.1c-1.3,0.2-2.3,0.9-2.7,2.2c-0.2,0.6-0.2,1.3-0.2,1.9
		c0,26.7,0,53.4,0,80.1c0,0.3,0,0.7,0,1c0.1,1.6,1.3,2.9,2.9,3.2c0.4,0.1,0.9,0.1,1.4,0.1c16.2,0,32.4,0,48.5,0c0.5,0,0.9,0,1.4-0.1
		c1.3-0.2,2.2-0.9,2.7-2.1c0.2-0.6,0.2-1.3,0.2-1.9C87.9,86.7,87.9,73.4,87.9,60 M85.4,110h-52c-0.1-0.1-0.3-0.1-0.4-0.2
		c-4-0.5-7.5-4-7.8-8.1c0-0.2-0.1-0.4-0.2-0.5V18.8c0.1-0.5,0.1-1,0.3-1.5c0.9-3.5,3-5.9,6.5-6.9c0.5-0.2,1.1-0.3,1.6-0.4h52
		c0.1,0.1,0.3,0.1,0.4,0.2c4,0.5,7.5,4,7.8,8.1c0,0.2,0.1,0.4,0.2,0.5v82.4c-0.1,0.5-0.1,0.9-0.2,1.4c-1,3.7-3.3,6.2-7,7.2
		C86.1,109.9,85.7,109.9,85.4,110"/>
	<path clip-path="url(#SVGID_2_)" fill="#FFFFFF" d="M63.2,19c4.2,0-4,0,0.1,0c0.4,0,0.9,0,1.3,0.2c1,0.3,1.7,1.2,1.6,2.3
		c-0.1,1-0.8,1.8-1.8,2c-0.4,0.1-0.8,0.1-1.3,0.1c-8.3,0,0.7,0-7.6,0c-0.7,0-1.4,0-2.1-0.4c-0.7-0.5-1.1-1.2-1-2.1
		c0.1-0.9,0.6-1.7,1.5-1.9c0.4-0.1,0.9-0.2,1.3-0.2C59.6,19,58.9,19,63.2,19"/>
	<path clip-path="url(#SVGID_2_)" fill="#FFFFFF" d="M59.4,100.2c1.3,0,2.3-1,2.3-2.3c0-1.3-1-2.3-2.3-2.3c-1.3,0-2.3,1-2.3,2.3
		C57.1,99.2,58.1,100.2,59.4,100.2"/>
	<path clip-path="url(#SVGID_2_)" fill="#ED1C24" d="M59.4,40.8c-10.6,0-19.1,8.6-19.1,19.1c0,10.6,8.6,19.1,19.1,19.1
		c5.4,0,10.8-0.9,14.8-4.6c0.9-1.1,1.4-1.8,1.4-2.8c0-1.6-1.1-1.9-1.9-1.9c-1,0-2.4,1.7-3.5,2.2c-3.3,1.8-7.1,2.4-10.8,2.4
		c-8,0-14.5-6.5-14.5-14.5c0-8,6.5-14.5,14.5-14.5c7.5,0,14.5,4.6,14.5,12c0,5.6-3.7,7.9-5.2,7.9c-0.8,0-1.2-0.5-1.2-1.1
		c0-0.6,0.1-1.3,0.2-1.7l2.1-9.5c0.1-0.5,0.2-1,0.2-1.7c0-0.9-1.1-1.5-2.4-1.5c-2.1,0-2.9,0.9-2.9,2.5v0.6h-0.1
		c-1.4-2.2-3.5-3.1-6.1-3.1c-6.2,0-10.1,5.7-10.1,11.6c0,4.5,3.3,9.1,7.7,9.1c2.1,0,4.1-0.9,5.5-2.5h0.1c0,1.4,0.9,2.5,3.6,2.5
		c2.5,0,13.4-3,13.4-13.2C78.5,47.9,69.1,40.8,59.4,40.8 M57.2,65.4c-2.4,0-3.6-2.3-3.6-4.5c0-2.6,2.1-5.6,4.9-5.6
		c2.5,0,4,2.1,4,4.4C62.5,62.7,60.3,65.4,57.2,65.4"/>
</g>
</svg>
