<?xml version="1.0" encoding="utf-8"?>
<!-- Generator: Adobe Illustrator 17.1.0, SVG Export Plug-In . SVG Version: 6.00 Build 0)  -->
<!DOCTYPE svg PUBLIC "-//W3C//DTD SVG 1.1//EN" "http://www.w3.org/Graphics/SVG/1.1/DTD/svg11.dtd">
<svg version="1.1" id="Layer_1" xmlns="http://www.w3.org/2000/svg" xmlns:xlink="http://www.w3.org/1999/xlink" x="0px" y="0px"
	 viewBox="0 0 120 120" enable-background="new 0 0 120 120" xml:space="preserve">
<path fill="#FFFFFF" d="M59.4,25.9c-13.6,0-27.3,0-40.9,0c-0.4,0-0.8,0-1.2,0c-1.7,0.1-3,1.3-3.3,3c-0.1,0.5-0.1,0.9-0.1,1.4
	c0,16.6,0,33.2,0,49.9c0,0.5,0,0.9,0.1,1.4c0.2,1.4,1,2.3,2.3,2.8c0.6,0.2,1.3,0.2,2,0.2c27.4,0,54.9,0,82.3,0c0.3,0,0.7,0,1,0
	c1.7-0.1,3-1.3,3.3-3c0.1-0.5,0.1-0.9,0.1-1.4c0-16.6,0-33.2,0-49.9c0-0.5,0-0.9-0.1-1.4c-0.2-1.3-0.9-2.3-2.2-2.7
	c-0.6-0.2-1.3-0.2-2-0.2C86.9,25.9,73.1,25.9,59.4,25.9 M110.8,28.5v53.4c-0.1,0.2-0.1,0.3-0.2,0.5c-0.5,4.1-4.1,7.7-8.3,8
	c-0.2,0-0.4,0.1-0.5,0.2H17c-0.5-0.1-1-0.1-1.5-0.3c-3.6-0.9-6-3.1-7.1-6.7C8.2,83,8.1,82.5,8,81.9V28.5c0.1-0.2,0.1-0.3,0.2-0.5
	c0.5-4.1,4.1-7.7,8.3-8c0.2,0,0.4-0.1,0.5-0.2h84.7c0.5,0.1,1,0.1,1.4,0.2c3.8,1,6.3,3.4,7.4,7.2C110.6,27.8,110.7,28.1,110.8,28.5"
	/>
<path fill="#FFFFFF" d="M59.5,94.4c5,0,10.1,0,15.1,0c0.5,0,1.1,0.1,1.6,0.2c1.2,0.3,2,1.5,1.9,2.8c-0.1,1.2-0.9,2.2-2.2,2.5
	c-0.5,0.1-1,0.2-1.5,0.2c-10,0-20.1,0-30.1,0c-0.9,0-1.7,0-2.5-0.5c-0.9-0.6-1.3-1.5-1.2-2.5c0.1-1.1,0.7-2,1.9-2.3
	c0.5-0.1,1.1-0.2,1.6-0.2C49.2,94.4,54.3,94.4,59.5,94.4"/>
<path fill="#ED1C24" d="M93.9,79.4c1.2,0,2.2-0.5,3.1-1.3c1.7-1.7,1.7-4.5,0-6.2L83.7,58.6l9.7,0.4c2.3,0,4.2-1.8,4.3-4.2
	c0.1-2.4-1.8-4.4-4.2-4.5L73,49.5l-0.1,0c-0.2,0-0.3,0-0.5,0l-0.2,0c-0.1,0-0.1,0-0.2,0c-0.2,0-0.4,0.1-0.6,0.2c0,0-0.1,0-0.1,0
	c-0.3,0.1-0.5,0.2-0.8,0.4l-0.1,0.1c-0.2,0.2-0.5,0.3-0.7,0.6c-0.2,0.2-0.4,0.4-0.6,0.7c0,0,0,0,0,0.1c-0.2,0.2-0.3,0.5-0.4,0.7
	c0,0.1-0.1,0.2-0.1,0.2c-0.1,0.2-0.1,0.4-0.2,0.6c0,0.1,0,0.1,0,0.2l0,0.1c0,0.2,0,0.4,0,0.5l0,0.1l0.8,20.7c0.1,2.4,2,4.2,4.3,4.2
	l0.2,0c2.4-0.1,4.3-2.1,4.2-4.5l-0.3-9.7l13.3,13.4C91.6,78.9,92.7,79.4,93.9,79.4z"/>
</svg>
