<?xml version="1.0" encoding="utf-8"?>
<!-- Generator: Adobe Illustrator 17.1.0, SVG Export Plug-In . SVG Version: 6.00 Build 0)  -->
<!DOCTYPE svg PUBLIC "-//W3C//DTD SVG 1.1//EN" "http://www.w3.org/Graphics/SVG/1.1/DTD/svg11.dtd">
<svg version="1.1" id="Layer_1" xmlns="http://www.w3.org/2000/svg" xmlns:xlink="http://www.w3.org/1999/xlink" x="0px" y="0px"
	 viewBox="0 0 120 120" enable-background="new 0 0 120 120" xml:space="preserve">
<g>
	<defs>
		<rect id="SVGID_1_" x="24" y="24.5" width="72.9" height="70.5"/>
	</defs>
	<clipPath id="SVGID_2_">
		<use xlink:href="#SVGID_1_"  overflow="visible"/>
	</clipPath>
	<path clip-path="url(#SVGID_2_)" fill="#FFFFFF" d="M60.5,95c20.1,0,36.5-15.8,36.5-35.2S80.6,24.5,60.5,24.5S24,40.3,24,59.8
		S40.3,95,60.5,95"/>
	<path clip-path="url(#SVGID_2_)" fill="#007037" d="M50.2,80.5c-0.1-1-0.1-1.9-0.2-2.7c0-1.2,0.1-2.4,0.4-3.6
		c0.6-2.2,1.9-3.8,3.9-4.9c1.4-0.8,3-1.2,4.6-1.4c1.6-0.2,3.2-0.3,4.7-0.2c1.4,0.1,2.8,0.2,4.3,0.4c0.9,0.1,1.8,0.2,2.7,0.3
		c1.1,0.1,2.1,0.3,3.2,0.5c0.9,0.1,1.8,0.3,2.7,0.4c0.8,0.1,1.6,0.1,2.5,0.1c0.3,0,0.5-0.1,0.8-0.1c0.5-0.2,0.6-0.6,0.4-1
		c-0.1-0.1-0.1-0.2-0.2-0.4c-1.2-2-1.6-4.1-1.4-6.4c0.2-1.8,0.8-3.5,1.8-5.1c1.2-2,2.7-3.7,4.7-4.9c0.7-0.5,1.5-0.9,2.4-1
		c0.6-0.1,1.2-0.1,1.8,0c0.8,0.1,1.5,0.7,1.8,1.4c0.3,0.5,0.5,1.1,0.6,1.7c0.2,0.9,0.3,1.8,0.3,2.7c0.1,1,0.1,1.9,0.1,2.9
		c0,4.4-0.9,8.7-2.7,12.8c-0.9,2.2-2.1,4.2-3.5,6.1c-2,2.8-4.4,5.2-7.2,7.2c-2.9,2.1-6.2,3.7-9.6,4.8c-1.8,0.5-3.6,0.9-5.4,1.2
		C62.9,91,62,91,61,91c-1.3,0.1-2.5,0-3.8-0.1c-1.7-0.1-3.4-0.4-5.1-0.8c-2.7-0.7-5.3-1.7-7.7-3c-3.4-1.8-6.4-4.2-8.9-7.1
		c-1.8-2.1-3.4-4.4-4.6-6.8c-0.2-0.4-0.3-0.9-0.5-1.3c-0.1-0.2-0.1-0.4,0.1-0.5c0.1-0.1,0.4-0.1,0.5,0c0.5,0.3,1.1,0.6,1.6,1
		c1.6,1.2,3.1,2.6,4.8,3.8c2.3,1.7,4.6,3.1,7.3,4c1.3,0.4,2.6,0.7,3.9,0.6C49.1,80.8,49.7,80.7,50.2,80.5"/>
	<path clip-path="url(#SVGID_2_)" fill="#008242" d="M50.3,66.2c0.6-0.5,1-0.9,1.5-1.2c0.9-0.6,1.8-1.1,2.9-1.4
		c1.6-0.3,3.1-0.1,4.5,0.7c0.5,0.3,0.9,0.6,1.4,0.9c0.1,0,0.1,0.1,0.2,0.2c-0.6,0.1-1.1,0.1-1.7,0.2c-2,0.2-4,0.7-5.8,1.7
		c-2.8,1.5-4.4,3.8-5,6.9C48,75.7,48,77,48,78.3c0,0.1,0,0.2,0,0.4c-0.8,0.1-1.5-0.1-2.2-0.4c-1.8-0.5-3.4-1.4-5-2.4
		c-2.7-1.6-5.2-3.4-7.6-5.4c-0.5-0.4-0.8-0.8-1-1.4c-0.6-1.7-1.1-3.3-1.4-5.1c-0.2-1.2-0.4-2.4-0.5-3.7c-0.1-1.3-0.2-2.6-0.1-3.9
		c0.1-3.8,0.7-7.6,2.2-11.1c1-2.3,2.3-4.5,4.1-6.2c0.4-0.4,0.9-0.8,1.4-1.1c0.2-0.2,0.5-0.3,0.7-0.4c0.8-0.3,1.4-0.1,1.8,0.7
		c0.2,0.4,0.3,0.8,0.4,1.2c0.2,1.3,0.3,2.5,0.1,3.8c-0.1,0.5-0.1,1.1-0.2,1.6c-0.1,1.1-0.2,2.1-0.5,3.2c-0.4,1.9-0.8,3.8-1.3,5.8
		c-0.5,1.9-1.1,3.8-1.8,5.6c0,0.1,0,0.1-0.1,0.3c0.3,0,0.4-0.2,0.6-0.3c0.9-0.7,1.9-1.4,3-1.8c2.2-0.8,4.4-0.7,6.4,0.6
		c1.2,0.8,2.1,2,2.6,3.4c0.5,1.2,0.7,2.4,0.7,3.7C50.3,65.6,50.3,65.9,50.3,66.2"/>
	<path clip-path="url(#SVGID_2_)" fill="#008D48" d="M78.5,45.1c-0.6-1-1.1-1.9-1.6-2.8c-1.5-2.7-2.9-5.5-3.7-8.6
		c-0.1-0.5-0.2-1-0.3-1.5c0-0.4-0.1-0.8,0.3-1.1c0.4-0.3,0.8,0,1.2,0.2c0.5,0.3,1,0.6,1.5,0.9c4.3,2.8,7.7,6.4,10.1,11
		c0.8,1.4,1.4,2.9,1.9,4.4c0,0.1,0.1,0.2,0.1,0.4c-0.1,0.1-0.2,0.1-0.3,0.1c-1.8,0.3-3.4,1.1-4.8,2.2c-3.1,2.5-4.8,5.7-5.7,9.5
		c-0.3,1.4-0.3,2.8-0.2,4.3c0.1,0.9,0.3,1.7,0.6,2.5c0,0.1,0.1,0.3,0.1,0.4c-0.3,0-0.5,0-0.7,0c-1.3-0.2-2.6-0.3-3.9-0.5
		c-1.4-0.2-2.8-0.4-4.2-0.6c-0.5-0.1-1.1-0.2-1.6-0.2c-0.9-0.1-1.9-0.1-2.8-0.2c-0.4,0-0.7-0.1-0.9-0.4c-0.9-1.1-2-2-3.2-2.7
		c-0.3-0.2-0.7-0.3-1-0.5c-0.2-1.5,0.7-3.1,1.9-3.7c0.7-0.4,1.4-0.6,2.2-0.7c0.4,0,0.9-0.1,1.4-0.2c0-0.4,0-0.8,0-1.1
		c0.1-1.9,0.5-3.8,1.3-5.5c1.1-2.2,2.9-3.7,5.2-4.5c1.4-0.6,2.9-0.9,4.5-1C76.4,45.2,77.4,45.1,78.5,45.1"/>
	<path clip-path="url(#SVGID_2_)" fill="#009246" d="M56.8,61.4c-1.7-0.1-3.2,0.2-4.8,1c-0.1-0.2-0.1-0.4-0.2-0.6
		c-0.9-2.7-2.5-4.8-5.1-6c-1.4-0.6-2.8-0.9-4.4-0.7c-0.6,0.1-1.1,0.2-1.7,0.3c0-0.2,0.1-0.4,0.1-0.5c0.7-2.4,1.3-4.8,1.7-7.2
		c0.2-1.3,0.3-2.5,0.5-3.8c0.1-0.8,0.1-1.6,0.1-2.4c0-1-0.1-1.9-0.4-2.9c-0.3-1.2-0.8-2.2-2-2.8c0.4-0.4,0.8-0.7,1.1-1
		c1.2-0.9,2.4-1.8,3.6-2.6c1-0.6,1.9-0.5,2.9,0c1,0.6,1.7,1.5,2.3,2.5c0.8,1.4,1.3,2.9,1.5,4.5c0.2,1,0.3,2,0.3,3
		c-0.1,2.5-0.6,4.9-1.6,7.2c-0.1,0.3-0.2,0.6-0.4,1c0.3-0.1,0.5-0.1,0.7-0.2c1.2-0.5,2.4-0.7,3.7-0.7c2.5,0,4.8,0.8,6.7,2.5
		c0.5,0.5,0.9,1,1.3,1.5c-0.1,0.8-0.2,1.5-0.3,2.2c-0.2,0.1-0.5,0.1-0.7,0.2c-1.9,0.5-3.4,1.7-4.3,3.5c-0.3,0.5-0.4,1.1-0.5,1.7
		C56.9,61.1,56.9,61.3,56.8,61.4"/>
	<path clip-path="url(#SVGID_2_)" fill="#289643" d="M75,43.2c-0.6,0.1-1.1,0.2-1.6,0.3c-2,0.4-3.9,1-5.6,2.1
		c-1.9,1.2-3.3,2.8-4.1,4.9c-0.1,0.1-0.1,0.3-0.2,0.5c-2.7-2.8-5.9-3.8-9.7-3.6c0.1-0.5,0.2-1,0.3-1.4c0.5-2,0.5-4.1,0.3-6.1
		c-0.2-2.3-0.9-4.5-2.1-6.5c0-0.1-0.1-0.2-0.1-0.3c0.6-0.2,1.2-0.4,1.8-0.6c1.8-0.5,3.7-0.8,5.6-0.9c1.3-0.1,2.6,0,3.9,0.1
		c2.5,0.2,5,0.8,7.3,1.8c0.3,0.1,0.4,0.3,0.5,0.6c0.6,2.5,1.7,4.9,2.9,7.2C74.3,41.8,74.6,42.5,75,43.2"/>
</g>
</svg>
