<?xml version="1.0" encoding="utf-8"?>
<!-- Generator: Adobe Illustrator 17.1.0, SVG Export Plug-In . SVG Version: 6.00 Build 0)  -->
<!DOCTYPE svg PUBLIC "-//W3C//DTD SVG 1.1//EN" "http://www.w3.org/Graphics/SVG/1.1/DTD/svg11.dtd">
<svg version="1.1" id="Layer_1" xmlns="http://www.w3.org/2000/svg" xmlns:xlink="http://www.w3.org/1999/xlink" x="0px" y="0px"
	 viewBox="0 0 120 120" enable-background="new 0 0 120 120" xml:space="preserve">
<g>
	<defs>
		<rect id="SVGID_1_" x="16" y="8.8" width="87.7" height="102.2"/>
	</defs>
	<clipPath id="SVGID_2_">
		<use xlink:href="#SVGID_1_"  overflow="visible"/>
	</clipPath>
	<path clip-path="url(#SVGID_2_)" fill="#ED1C24" d="M29.7,69.2c0.4,0,0.7,0,1.1,0c0.3,0,0.5,0,0.8-0.1c0.3-0.1,0.6-0.3,0.9-0.3
		c0.7-0.1,1.2-0.5,1.8-0.8c0.5-0.3,0.9-0.7,1.3-1c0.6-0.5,1.1-1.1,1.6-1.7c0.1-0.2,0.2-0.4,0.3-0.5c0.2-0.2,0.3-0.4,0.4-0.7
		c0-0.2,0.3-0.4,0.3-0.7c0.1-0.4,0.3-0.8,0.4-1.3c0.2-0.5,0.1-1.1,0.2-1.6c0.1-0.8-0.1-1.6-0.1-2.5c0-0.1,0-0.1-0.1-0.2
		c-0.3-0.6-0.4-1.3-0.7-1.9c-0.2-0.3-0.4-0.7-0.5-1c-0.3-0.6-0.7-1-1.1-1.5c-0.2-0.2-0.5-0.4-0.7-0.6c-0.7-0.7-1.6-1.1-2.5-1.6
		c0,0-0.1,0-0.2,0c-0.3-0.1-0.5-0.2-0.8-0.3c-0.4-0.2-0.8-0.3-1.3-0.3c-0.8,0-1.7,0-2.5,0c-0.3,0-0.7,0.1-1,0.2
		c-0.3,0.1-0.6,0.2-0.9,0.3c-0.3,0.1-0.5,0.2-0.8,0.4c-0.3,0.1-0.5,0.3-0.8,0.4c-0.8,0.4-1.3,1-1.9,1.6c-0.5,0.5-0.9,1.2-1.3,1.8
		c-0.1,0.1-0.1,0.2-0.2,0.3c-0.1,0.1-0.1,0.3-0.2,0.4c-0.1,0.2-0.2,0.4-0.2,0.6c-0.1,0.3-0.2,0.5-0.2,0.8c-0.1,0.2-0.2,0.4-0.2,0.7
		c0,0.5-0.1,1-0.1,1.5c-0.1,0.7,0,1.5,0.1,2.2c0,0.1,0.1,0.1,0.1,0.2c0.1,0.3,0.3,0.6,0.3,1c0.1,0.6,0.5,1,0.6,1.5
		c0,0.1,0.1,0.1,0.1,0.2c0.1,0.1,0.2,0.2,0.2,0.3c0.1,0.3,0.3,0.6,0.6,0.8c0.1,0.1,0.2,0.2,0.3,0.3c0.2,0.2,0.4,0.5,0.6,0.7
		c0.5,0.4,1,0.9,1.5,1.2c0.5,0.3,1,0.5,1.5,0.7c0.2,0.1,0.3,0.1,0.5,0.2c0.5,0.2,1,0.3,1.6,0.3C29,69.2,29.3,69.2,29.7,69.2 M66,62
		c0,0.5,0,1.1,0,1.7c0,0.2-0.1,0.4-0.2,0.6c0,0-0.1,0-0.1,0.1c-0.1,0.5-0.6,0.7-0.9,0.9c-0.3,0.2-0.6,0.2-0.9,0.1
		c-0.7-0.2-1.2-0.7-1.4-1.5c-0.1-0.5-0.1-1-0.1-1.5c0-0.6,0-0.7-0.6-0.7c-6.3,0-12.7,0-19,0c-0.6,0-0.8,0.2-0.8,0.8
		c0,0.4-0.1,0.9-0.3,1.2c-0.1,0.1-0.1,0.2-0.1,0.4c-0.1,0.3-0.2,0.7-0.3,1c-0.2,0.4-0.4,0.8-0.6,1.2c-0.3,0.6-0.7,1.1-1.1,1.6
		c-0.4,0.5-0.8,1-1.3,1.4c-0.5,0.5-1.1,0.9-1.6,1.3c-0.4,0.3-0.8,0.4-1.1,0.7c-0.4,0.3-0.9,0.3-1.2,0.6c-0.4,0-0.7,0.2-1,0.3
		c-0.3,0.1-0.7,0.2-1,0.2c-0.5,0.1-1.1,0.2-1.6,0.3c-0.2,0-0.4,0-0.6,0c-0.9,0-1.7,0-2.5-0.3c-0.2-0.1-0.5-0.1-0.7-0.1
		c-0.2,0-0.4,0-0.6-0.1c-0.4-0.3-1-0.3-1.4-0.5c-0.2-0.1-0.4-0.3-0.6-0.3c0,0-0.1,0-0.1-0.1c-0.4-0.2-0.8-0.5-1.1-0.7
		c-0.3-0.2-0.5-0.4-0.8-0.6c-0.9-0.6-1.5-1.3-2.2-2.1c-0.3-0.3-0.4-0.7-0.7-1c-0.3-0.4-0.4-0.9-0.8-1.3c0-0.5-0.5-0.8-0.5-1.4
		c0-0.2-0.1-0.3-0.2-0.5c-0.2-0.4-0.3-0.9-0.3-1.4c0-0.1-0.1-0.2-0.1-0.4c-0.1-0.5-0.3-1-0.2-1.5c0-0.5,0-1,0-1.4
		c0-0.6,0.1-1.2,0.3-1.8c0.1-0.3,0.1-0.7,0.2-1c0-0.1,0.1-0.3,0.1-0.4c0.2-0.3,0.3-0.6,0.3-0.9c0-0.1,0-0.2,0.1-0.3
		c0.2-0.2,0.2-0.4,0.3-0.7c0-0.1,0.1-0.2,0.1-0.3c0.1-0.1,0.1-0.2,0.2-0.3c0.2-0.5,0.6-0.9,0.9-1.4c0.4-0.8,1.1-1.3,1.7-1.9
		c0.4-0.4,0.9-0.8,1.4-1.1c0.4-0.3,0.8-0.4,1.1-0.7c0,0,0.1,0,0.1-0.1c0.4-0.1,0.7-0.4,1.1-0.5c0.5-0.1,0.9-0.3,1.3-0.5
		c0.2-0.1,0.5,0,0.7-0.1c0.2-0.1,0.5-0.1,0.7-0.1c0.9-0.3,1.8-0.2,2.7-0.2c0.4,0,0.9,0.2,1.3,0.2c0.3,0.1,0.7,0.1,1,0.2
		c0.2,0,0.3,0.1,0.5,0.1c0.5,0.2,0.9,0.3,1.4,0.5c0.3,0.1,0.5,0.4,0.8,0.3c0,0,0,0,0,0c0.4,0.2,0.7,0.5,1.1,0.7
		c0.6,0.3,1,0.8,1.5,1.2c0.5,0.4,0.8,0.8,1.2,1.3c0.2,0.2,0.3,0.5,0.5,0.7c0.4,0.6,0.8,1.1,1.1,1.8c0.3,0.6,0.6,1.1,0.7,1.7
		c0,0.1,0.1,0.2,0.1,0.3c0.2,0.4,0.3,0.7,0.3,1.1c0,0.2,0,0.4,0.1,0.5c0.1,0.2,0.3,0.4,0.6,0.3c0.3,0,0.7,0,1,0
		c11.6,0,23.3,0,34.9,0c0.6,0,1.1,0.3,1.4,0.6c0.4,0.3,0.6,0.8,0.6,1.4c0,1.8,0,3.5,0,5.3c0,0.5-0.2,1-0.6,1.4
		c-0.3,0.3-0.7,0.5-1.1,0.6c-0.2,0-0.4,0-0.6-0.1c-0.2-0.1-0.4-0.3-0.7-0.4c-0.1,0-0.1-0.1-0.1-0.2c0-0.1-0.1-0.1-0.1-0.2
		C77.1,66,77,65.5,77,65c0-0.9,0-1.9,0-2.8c0-0.4-0.1-0.4-0.4-0.4c-0.9,0-1.9,0-2.8,0c-0.4,0-0.4,0.1-0.4,0.5c0,1.7,0,3.3,0,5
		c0,0.6-0.3,1-0.6,1.4c-0.3,0.4-0.8,0.5-1.2,0.6c-0.1,0-0.3,0-0.4-0.1c-0.4-0.2-0.8-0.4-1.1-0.8c-0.2-0.5-0.4-1-0.3-1.5
		c0-1.4,0-2.9,0-4.3c0-0.1,0-0.3,0-0.4c0-0.2-0.1-0.3-0.3-0.3c-0.2,0-0.4,0-0.6,0c-0.7,0-1.5,0-2.2,0C66.3,61.7,66.1,61.8,66,62"/>
	<path clip-path="url(#SVGID_2_)" fill="none" stroke="#ED1C24" stroke-width="2" stroke-miterlimit="10" d="M29.7,69.2
		c0.4,0,0.7,0,1.1,0c0.3,0,0.5,0,0.8-0.1c0.3-0.1,0.6-0.3,0.9-0.3c0.7-0.1,1.2-0.5,1.8-0.8c0.5-0.3,0.9-0.7,1.3-1
		c0.6-0.5,1.1-1.1,1.6-1.7c0.1-0.2,0.2-0.4,0.3-0.5c0.2-0.2,0.3-0.4,0.4-0.7c0-0.2,0.3-0.4,0.3-0.7c0.1-0.4,0.3-0.8,0.4-1.3
		c0.2-0.5,0.1-1.1,0.2-1.6c0.1-0.8-0.1-1.6-0.1-2.5c0-0.1,0-0.1-0.1-0.2c-0.3-0.6-0.4-1.3-0.7-1.9c-0.2-0.3-0.4-0.7-0.5-1
		c-0.3-0.6-0.7-1-1.1-1.5c-0.2-0.2-0.5-0.4-0.7-0.6c-0.7-0.7-1.6-1.1-2.5-1.6c0,0-0.1,0-0.2,0c-0.3-0.1-0.5-0.2-0.8-0.3
		c-0.4-0.2-0.8-0.3-1.3-0.3c-0.8,0-1.7,0-2.5,0c-0.3,0-0.7,0.1-1,0.2c-0.3,0.1-0.6,0.2-0.9,0.3c-0.3,0.1-0.5,0.2-0.8,0.4
		c-0.3,0.1-0.5,0.3-0.8,0.4c-0.8,0.4-1.3,1-1.9,1.6c-0.5,0.5-0.9,1.2-1.3,1.8c-0.1,0.1-0.1,0.2-0.2,0.3c-0.1,0.1-0.1,0.3-0.2,0.4
		c-0.1,0.2-0.2,0.4-0.2,0.6c-0.1,0.3-0.2,0.5-0.2,0.8c-0.1,0.2-0.2,0.4-0.2,0.7c0,0.5-0.1,1-0.1,1.5c-0.1,0.7,0,1.5,0.1,2.2
		c0,0.1,0.1,0.1,0.1,0.2c0.1,0.3,0.3,0.6,0.3,1c0.1,0.6,0.5,1,0.6,1.5c0,0.1,0.1,0.1,0.1,0.2c0.1,0.1,0.2,0.2,0.2,0.3
		c0.1,0.3,0.3,0.6,0.6,0.8c0.1,0.1,0.2,0.2,0.3,0.3c0.2,0.2,0.4,0.5,0.6,0.7c0.5,0.4,1,0.9,1.5,1.2c0.5,0.3,1,0.5,1.5,0.7
		c0.2,0.1,0.3,0.1,0.5,0.2c0.5,0.2,1,0.3,1.6,0.3C29,69.2,29.3,69.2,29.7,69.2z M66,62c0,0.5,0,1.1,0,1.7c0,0.2-0.1,0.4-0.2,0.6
		c0,0-0.1,0-0.1,0.1c-0.1,0.5-0.6,0.7-0.9,0.9c-0.3,0.2-0.6,0.2-0.9,0.1c-0.7-0.2-1.2-0.7-1.4-1.5c-0.1-0.5-0.1-1-0.1-1.5
		c0-0.6,0-0.7-0.6-0.7c-6.3,0-12.7,0-19,0c-0.6,0-0.8,0.2-0.8,0.8c0,0.4-0.1,0.9-0.3,1.2c-0.1,0.1-0.1,0.2-0.1,0.4
		c-0.1,0.3-0.2,0.7-0.3,1c-0.2,0.4-0.4,0.8-0.6,1.2c-0.3,0.6-0.7,1.1-1.1,1.6c-0.4,0.5-0.8,1-1.3,1.4c-0.5,0.5-1.1,0.9-1.6,1.3
		c-0.4,0.3-0.8,0.4-1.1,0.7c-0.4,0.3-0.9,0.3-1.2,0.6c-0.4,0-0.7,0.2-1,0.3c-0.3,0.1-0.7,0.2-1,0.2c-0.5,0.1-1.1,0.2-1.6,0.3
		c-0.2,0-0.4,0-0.6,0c-0.9,0-1.7,0-2.5-0.3c-0.2-0.1-0.5-0.1-0.7-0.1c-0.2,0-0.4,0-0.6-0.1c-0.4-0.3-1-0.3-1.4-0.5
		c-0.2-0.1-0.4-0.3-0.6-0.3c0,0-0.1,0-0.1-0.1c-0.4-0.2-0.8-0.5-1.1-0.7c-0.3-0.2-0.5-0.4-0.8-0.6c-0.9-0.6-1.5-1.3-2.2-2.1
		c-0.3-0.3-0.4-0.7-0.7-1c-0.3-0.4-0.4-0.9-0.8-1.3c0-0.5-0.5-0.8-0.5-1.4c0-0.2-0.1-0.3-0.2-0.5c-0.2-0.4-0.3-0.9-0.3-1.4
		c0-0.1-0.1-0.2-0.1-0.4c-0.1-0.5-0.3-1-0.2-1.5c0-0.5,0-1,0-1.4c0-0.6,0.1-1.2,0.3-1.8c0.1-0.3,0.1-0.7,0.2-1
		c0-0.1,0.1-0.3,0.1-0.4c0.2-0.3,0.3-0.6,0.3-0.9c0-0.1,0-0.2,0.1-0.3c0.2-0.2,0.2-0.4,0.3-0.7c0-0.1,0.1-0.2,0.1-0.3
		c0.1-0.1,0.1-0.2,0.2-0.3c0.2-0.5,0.6-0.9,0.9-1.4c0.4-0.8,1.1-1.3,1.7-1.9c0.4-0.4,0.9-0.8,1.4-1.1c0.4-0.3,0.8-0.4,1.1-0.7
		c0,0,0.1,0,0.1-0.1c0.4-0.1,0.7-0.4,1.1-0.5c0.5-0.1,0.9-0.3,1.3-0.5c0.2-0.1,0.5,0,0.7-0.1c0.2-0.1,0.5-0.1,0.7-0.1
		c0.9-0.3,1.8-0.2,2.7-0.2c0.4,0,0.9,0.2,1.3,0.2c0.3,0.1,0.7,0.1,1,0.2c0.2,0,0.3,0.1,0.5,0.1c0.5,0.2,0.9,0.3,1.4,0.5
		c0.3,0.1,0.5,0.4,0.8,0.3c0,0,0,0,0,0c0.4,0.2,0.7,0.5,1.1,0.7c0.6,0.3,1,0.8,1.5,1.2c0.5,0.4,0.8,0.8,1.2,1.3
		c0.2,0.2,0.3,0.5,0.5,0.7c0.4,0.6,0.8,1.1,1.1,1.8c0.3,0.6,0.6,1.1,0.7,1.7c0,0.1,0.1,0.2,0.1,0.3c0.2,0.4,0.3,0.7,0.3,1.1
		c0,0.2,0,0.4,0.1,0.5c0.1,0.2,0.3,0.4,0.6,0.3c0.3,0,0.7,0,1,0c11.6,0,23.3,0,34.9,0c0.6,0,1.1,0.3,1.4,0.6
		c0.4,0.3,0.6,0.8,0.6,1.4c0,1.8,0,3.5,0,5.3c0,0.5-0.2,1-0.6,1.4c-0.3,0.3-0.7,0.5-1.1,0.6c-0.2,0-0.4,0-0.6-0.1
		c-0.2-0.1-0.4-0.3-0.7-0.4c-0.1,0-0.1-0.1-0.1-0.2c0-0.1-0.1-0.1-0.1-0.2C77.1,66,77,65.5,77,65c0-0.9,0-1.9,0-2.8
		c0-0.4-0.1-0.4-0.4-0.4c-0.9,0-1.9,0-2.8,0c-0.4,0-0.4,0.1-0.4,0.5c0,1.7,0,3.3,0,5c0,0.6-0.3,1-0.6,1.4c-0.3,0.4-0.8,0.5-1.2,0.6
		c-0.1,0-0.3,0-0.4-0.1c-0.4-0.2-0.8-0.4-1.1-0.8c-0.2-0.5-0.4-1-0.3-1.5c0-1.4,0-2.9,0-4.3c0-0.1,0-0.3,0-0.4
		c0-0.2-0.1-0.3-0.3-0.3c-0.2,0-0.4,0-0.6,0c-0.7,0-1.5,0-2.2,0C66.3,61.7,66.1,61.8,66,62z"/>
	<path clip-path="url(#SVGID_2_)" fill="none" stroke="#FFFFFF" stroke-width="6" stroke-linecap="round" d="M36,96.7v3.8
		c0,1.2,0.5,7.5,7.5,7.5h49.6c1.2,0,7.5-0.5,7.5-7.5V19.3c0-1.2-0.5-7.5-7.5-7.5H43.6c-1.2,0-7.5,0.5-7.5,7.5v3.8"/>
</g>
</svg>
