<?xml version="1.0" encoding="utf-8"?>
<!-- Generator: Adobe Illustrator 17.1.0, SVG Export Plug-In . SVG Version: 6.00 Build 0)  -->
<!DOCTYPE svg PUBLIC "-//W3C//DTD SVG 1.1//EN" "http://www.w3.org/Graphics/SVG/1.1/DTD/svg11.dtd">
<svg version="1.1" id="Layer_1" xmlns="http://www.w3.org/2000/svg" xmlns:xlink="http://www.w3.org/1999/xlink" x="0px" y="0px"
	 viewBox="0 0 120 120" enable-background="new 0 0 120 120" xml:space="preserve">
<g>
	<defs>
		<rect id="SVGID_1_" x="8" y="24.3" width="102.8" height="70.7"/>
	</defs>
	<clipPath id="SVGID_2_">
		<use xlink:href="#SVGID_1_"  overflow="visible"/>
	</clipPath>
	<path clip-path="url(#SVGID_2_)" d="M45.4,75.7c0.3-0.1,0.7-0.3,1-0.4c0.2-0.1,0.5-0.2,0.7-0.4
		c0.3-0.2,0.5-0.5,0.7-0.7c0.6-0.4,0.9-0.9,1.4-1.5c0.4-0.4,0.6-1,0.8-1.4c0.4-0.7,0.6-1.4,0.8-2.2c0.1-0.2,0-0.4,0.1-0.6
		c0.1-0.2,0.1-0.5,0.1-0.7c-0.1-0.2,0.1-0.5,0-0.7c-0.1-0.4-0.1-0.9-0.1-1.3c0-0.6-0.3-1-0.4-1.6c-0.2-0.8-0.7-1.5-1-2.2
		c0-0.1-0.1-0.1-0.1-0.2c-0.5-0.5-0.9-1-1.4-1.5c-0.3-0.3-0.6-0.5-0.9-0.7c-0.5-0.4-1.1-0.6-1.6-0.9c-0.3-0.1-0.6-0.2-0.9-0.3
		c-0.9-0.4-1.9-0.4-2.9-0.5c-0.1,0-0.1,0-0.2,0c-0.3,0-0.6,0.1-0.8,0.1c-0.4,0-0.9,0.1-1.3,0.2c-0.8,0.3-1.5,0.6-2.3,1
		c-0.3,0.1-0.6,0.3-0.9,0.6c-0.2,0.2-0.5,0.4-0.7,0.7c-0.2,0.2-0.4,0.4-0.6,0.7c-0.2,0.2-0.4,0.5-0.6,0.7c-0.6,0.6-0.8,1.4-1.2,2.2
		c-0.3,0.7-0.4,1.4-0.5,2.1c0,0.1,0,0.2,0,0.4c0,0.2,0,0.3,0,0.5c0,0.2,0,0.4,0,0.6c0,0.3,0.1,0.5,0.1,0.8c0,0.2,0,0.5,0.1,0.7
		c0.2,0.5,0.3,1,0.5,1.4c0.2,0.7,0.6,1.3,0.9,2c0,0.1,0.1,0.1,0.2,0.1c0.2,0.2,0.5,0.5,0.7,0.8c0.3,0.5,0.8,0.7,1.1,1.1
		c0,0.1,0.1,0.1,0.2,0.1c0.1,0.1,0.2,0.1,0.3,0.2c0.3,0.2,0.5,0.4,0.9,0.5c0.1,0,0.3,0.1,0.4,0.2c0.3,0.1,0.6,0.3,0.8,0.4
		c0.6,0.2,1.2,0.4,1.9,0.5c0.5,0,1.1,0.1,1.6,0.1c0.2,0,0.3,0,0.5,0c0.6,0,1.1-0.1,1.6-0.3C44.7,75.9,45,75.8,45.4,75.7 M76,54.8
		c0.2,0.5,0.4,1,0.6,1.5c0.1,0.2,0.1,0.4,0.1,0.6c0,0,0,0.1,0,0.1c0.1,0.5-0.3,0.8-0.5,1.2c-0.2,0.3-0.5,0.4-0.8,0.4
		c-0.7,0-1.4-0.1-1.9-0.8c-0.3-0.4-0.5-0.9-0.7-1.4c-0.2-0.5-0.2-0.6-0.8-0.4c-5.8,2.5-11.7,5-17.5,7.5c-0.5,0.2-0.6,0.5-0.4,1.1
		c0.2,0.4,0.2,0.8,0.2,1.3c0,0.1,0,0.3,0,0.4c0.1,0.3,0.1,0.7,0.1,1c-0.1,0.4,0,0.9-0.1,1.3c-0.1,0.6-0.2,1.3-0.4,1.9
		c-0.2,0.6-0.4,1.2-0.6,1.8c-0.3,0.6-0.7,1.2-1,1.8c-0.2,0.4-0.5,0.7-0.8,1.1c-0.2,0.4-0.7,0.6-0.9,1c-0.4,0.1-0.6,0.5-0.8,0.7
		c-0.3,0.2-0.6,0.4-0.9,0.6c-0.5,0.3-0.9,0.6-1.4,0.9c-0.2,0.1-0.4,0.2-0.6,0.3c-0.8,0.4-1.6,0.6-2.5,0.7c-0.2,0-0.5,0.1-0.7,0.2
		c-0.2,0-0.4,0.1-0.6,0.1c-0.5-0.1-1,0.1-1.5,0.1c-0.2,0-0.5-0.1-0.7,0c0,0-0.1,0-0.1,0c-0.4-0.1-0.9-0.1-1.3-0.2
		c-0.3-0.1-0.6-0.1-0.9-0.2c-1-0.2-1.9-0.6-2.9-1c-0.4-0.2-0.6-0.5-1-0.6c-0.5-0.2-0.8-0.7-1.3-0.9c-0.2-0.5-0.8-0.6-1-1
		c-0.1-0.2-0.2-0.3-0.4-0.4c-0.4-0.3-0.6-0.7-0.8-1.1c-0.1-0.1-0.1-0.2-0.2-0.3c-0.3-0.4-0.6-0.8-0.8-1.3c-0.2-0.4-0.4-0.9-0.6-1.3
		c-0.3-0.6-0.3-1.2-0.5-1.8c-0.1-0.3-0.2-0.7-0.2-1c0-0.1-0.1-0.3,0-0.4c0-0.3,0-0.6-0.1-1c0-0.1,0-0.2,0-0.3c0.1-0.3,0-0.5,0-0.7
		c0-0.1,0-0.2,0-0.3c0-0.1,0.1-0.2,0.1-0.3c0-0.6,0.2-1.1,0.3-1.6c0.1-0.9,0.5-1.6,0.8-2.4c0.2-0.6,0.6-1.1,0.9-1.6
		c0.2-0.4,0.6-0.7,0.8-1.1c0,0,0.1-0.1,0.1-0.1c0.3-0.2,0.5-0.6,0.8-0.8c0.4-0.3,0.7-0.7,1-1c0.2-0.2,0.4-0.2,0.6-0.4
		c0.1-0.2,0.4-0.2,0.6-0.4c0.7-0.6,1.5-0.9,2.4-1.2c0.4-0.2,0.9-0.2,1.3-0.3c0.3-0.1,0.7-0.1,1-0.2c0.2,0,0.3-0.1,0.5-0.1
		c0.5,0,1-0.1,1.5-0.1c0.3,0,0.6,0.1,0.8,0c0,0,0,0,0.1,0c0.4,0.1,0.9,0.2,1.3,0.2c0.6,0.1,1.3,0.3,1.9,0.5c0.6,0.2,1.1,0.4,1.6,0.7
		c0.3,0.1,0.5,0.3,0.8,0.5c0.6,0.3,1.2,0.7,1.7,1.2c0.4,0.4,1,0.7,1.3,1.3c0,0.1,0.2,0.2,0.3,0.3c0.3,0.3,0.5,0.6,0.7,0.9
		c0.1,0.2,0.1,0.3,0.3,0.4c0.2,0.2,0.4,0.2,0.6,0.1c0.3-0.2,0.6-0.3,1-0.4c10.7-4.6,21.4-9.2,32.1-13.7c0.5-0.2,1.1-0.2,1.6,0
		c0.5,0.2,0.8,0.5,1.1,1c0.7,1.6,1.4,3.2,2,4.8c0.2,0.5,0.2,1,0,1.5c-0.1,0.4-0.4,0.7-0.8,1c-0.2,0.1-0.4,0.2-0.6,0.2
		c-0.3,0-0.5-0.2-0.8-0.1c-0.1,0-0.1,0-0.2-0.1c-0.1,0-0.1-0.1-0.2-0.1c-0.4-0.3-0.7-0.7-0.9-1.2c-0.3-0.9-0.7-1.7-1.1-2.6
		c-0.2-0.4-0.2-0.4-0.6-0.2c-0.9,0.4-1.7,0.7-2.6,1.1c-0.3,0.2-0.4,0.2-0.2,0.6c0.6,1.5,1.3,3,1.9,4.5c0.2,0.5,0.2,1,0,1.5
		c-0.1,0.4-0.5,0.8-0.9,1c-0.1,0.1-0.3,0.1-0.4,0.1c-0.5,0-0.9,0-1.3-0.3c-0.4-0.3-0.7-0.7-0.9-1.3c-0.5-1.3-1.1-2.7-1.7-4
		c0-0.1-0.1-0.2-0.2-0.4c-0.1-0.2-0.2-0.2-0.4-0.1c-0.2,0.1-0.4,0.2-0.6,0.2c-0.7,0.3-1.4,0.6-2.1,0.9C76.2,54.4,76.1,54.5,76,54.8"
		/>
	<path clip-path="url(#SVGID_2_)" fill="none" stroke="#FFFFFF" stroke-width="2" stroke-miterlimit="10" d="M45.4,75.7
		c0.3-0.1,0.7-0.3,1-0.4c0.2-0.1,0.5-0.2,0.7-0.4c0.3-0.2,0.5-0.5,0.7-0.7c0.6-0.4,0.9-0.9,1.4-1.5c0.4-0.4,0.6-1,0.8-1.4
		c0.4-0.7,0.6-1.4,0.8-2.2c0.1-0.2,0-0.4,0.1-0.6c0.1-0.2,0.1-0.5,0.1-0.7c-0.1-0.2,0.1-0.5,0-0.7c-0.1-0.4-0.1-0.9-0.1-1.3
		c0-0.6-0.3-1-0.4-1.6c-0.2-0.8-0.7-1.5-1-2.2c0-0.1-0.1-0.1-0.1-0.2c-0.5-0.5-0.9-1-1.4-1.5c-0.3-0.3-0.6-0.5-0.9-0.7
		c-0.5-0.4-1.1-0.6-1.6-0.9c-0.3-0.1-0.6-0.2-0.9-0.3c-0.9-0.4-1.9-0.4-2.9-0.5c-0.1,0-0.1,0-0.2,0c-0.3,0-0.6,0.1-0.8,0.1
		c-0.4,0-0.9,0.1-1.3,0.2c-0.8,0.3-1.5,0.6-2.3,1c-0.3,0.1-0.6,0.3-0.9,0.6c-0.2,0.2-0.5,0.4-0.7,0.7c-0.2,0.2-0.4,0.4-0.6,0.7
		c-0.2,0.2-0.4,0.5-0.6,0.7c-0.6,0.6-0.8,1.4-1.2,2.2c-0.3,0.7-0.4,1.4-0.5,2.1c0,0.1,0,0.2,0,0.4c0,0.2,0,0.3,0,0.5
		c0,0.2,0,0.4,0,0.6c0,0.3,0.1,0.5,0.1,0.8c0,0.2,0,0.5,0.1,0.7c0.2,0.5,0.3,1,0.5,1.4c0.2,0.7,0.6,1.3,0.9,2c0,0.1,0.1,0.1,0.2,0.1
		c0.2,0.2,0.5,0.5,0.7,0.8c0.3,0.5,0.8,0.7,1.1,1.1c0,0.1,0.1,0.1,0.2,0.1c0.1,0.1,0.2,0.1,0.3,0.2c0.3,0.2,0.5,0.4,0.9,0.5
		c0.1,0,0.3,0.1,0.4,0.2c0.3,0.1,0.6,0.3,0.8,0.4c0.6,0.2,1.2,0.4,1.9,0.5c0.5,0,1.1,0.1,1.6,0.1c0.2,0,0.3,0,0.5,0
		c0.6,0,1.1-0.1,1.6-0.3C44.7,75.9,45,75.8,45.4,75.7z M76,54.8c0.2,0.5,0.4,1,0.6,1.5c0.1,0.2,0.1,0.4,0.1,0.6c0,0,0,0.1,0,0.1
		c0.1,0.5-0.3,0.8-0.5,1.2c-0.2,0.3-0.5,0.4-0.8,0.4c-0.7,0-1.4-0.1-1.9-0.8c-0.3-0.4-0.5-0.9-0.7-1.4c-0.2-0.5-0.2-0.6-0.8-0.4
		c-5.8,2.5-11.7,5-17.5,7.5c-0.5,0.2-0.6,0.5-0.4,1.1c0.2,0.4,0.2,0.8,0.2,1.3c0,0.1,0,0.3,0,0.4c0.1,0.3,0.1,0.7,0.1,1
		c-0.1,0.4,0,0.9-0.1,1.3c-0.1,0.6-0.2,1.3-0.4,1.9c-0.2,0.6-0.4,1.2-0.6,1.8c-0.3,0.6-0.7,1.2-1,1.8c-0.2,0.4-0.5,0.7-0.8,1.1
		c-0.2,0.4-0.7,0.6-0.9,1c-0.4,0.1-0.6,0.5-0.8,0.7c-0.3,0.2-0.6,0.4-0.9,0.6c-0.5,0.3-0.9,0.6-1.4,0.9c-0.2,0.1-0.4,0.2-0.6,0.3
		c-0.8,0.4-1.6,0.6-2.5,0.7c-0.2,0-0.5,0.1-0.7,0.2c-0.2,0-0.4,0.1-0.6,0.1c-0.5-0.1-1,0.1-1.5,0.1c-0.2,0-0.5-0.1-0.7,0
		c0,0-0.1,0-0.1,0c-0.4-0.1-0.9-0.1-1.3-0.2c-0.3-0.1-0.6-0.1-0.9-0.2c-1-0.2-1.9-0.6-2.9-1c-0.4-0.2-0.6-0.5-1-0.6
		c-0.5-0.2-0.8-0.7-1.3-0.9c-0.2-0.5-0.8-0.6-1-1c-0.1-0.2-0.2-0.3-0.4-0.4c-0.4-0.3-0.6-0.7-0.8-1.1c-0.1-0.1-0.1-0.2-0.2-0.3
		c-0.3-0.4-0.6-0.8-0.8-1.3c-0.2-0.4-0.4-0.9-0.6-1.3c-0.3-0.6-0.3-1.2-0.5-1.8c-0.1-0.3-0.2-0.7-0.2-1c0-0.1-0.1-0.3,0-0.4
		c0-0.3,0-0.6-0.1-1c0-0.1,0-0.2,0-0.3c0.1-0.3,0-0.5,0-0.7c0-0.1,0-0.2,0-0.3c0-0.1,0.1-0.2,0.1-0.3c0-0.6,0.2-1.1,0.3-1.6
		c0.1-0.9,0.5-1.6,0.8-2.4c0.2-0.6,0.6-1.1,0.9-1.6c0.2-0.4,0.6-0.7,0.8-1.1c0,0,0.1-0.1,0.1-0.1c0.3-0.2,0.5-0.6,0.8-0.8
		c0.4-0.3,0.7-0.7,1-1c0.2-0.2,0.4-0.2,0.6-0.4c0.1-0.2,0.4-0.2,0.6-0.4c0.7-0.6,1.5-0.9,2.4-1.2c0.4-0.2,0.9-0.2,1.3-0.3
		c0.3-0.1,0.7-0.1,1-0.2c0.2,0,0.3-0.1,0.5-0.1c0.5,0,1-0.1,1.5-0.1c0.3,0,0.6,0.1,0.8,0c0,0,0,0,0.1,0c0.4,0.1,0.9,0.2,1.3,0.2
		c0.6,0.1,1.3,0.3,1.9,0.5c0.6,0.2,1.1,0.4,1.6,0.7c0.3,0.1,0.5,0.3,0.8,0.5c0.6,0.3,1.2,0.7,1.7,1.2c0.4,0.4,1,0.7,1.3,1.3
		c0,0.1,0.2,0.2,0.3,0.3c0.3,0.3,0.5,0.6,0.7,0.9c0.1,0.2,0.1,0.3,0.3,0.4c0.2,0.2,0.4,0.2,0.6,0.1c0.3-0.2,0.6-0.3,1-0.4
		c10.7-4.6,21.4-9.2,32.1-13.7c0.5-0.2,1.1-0.2,1.6,0c0.5,0.2,0.8,0.5,1.1,1c0.7,1.6,1.4,3.2,2,4.8c0.2,0.5,0.2,1,0,1.5
		c-0.1,0.4-0.4,0.7-0.8,1c-0.2,0.1-0.4,0.2-0.6,0.2c-0.3,0-0.5-0.2-0.8-0.1c-0.1,0-0.1,0-0.2-0.1c-0.1,0-0.1-0.1-0.2-0.1
		c-0.4-0.3-0.7-0.7-0.9-1.2c-0.3-0.9-0.7-1.7-1.1-2.6c-0.2-0.4-0.2-0.4-0.6-0.2c-0.9,0.4-1.7,0.7-2.6,1.1c-0.3,0.2-0.4,0.2-0.2,0.6
		c0.6,1.5,1.3,3,1.9,4.5c0.2,0.5,0.2,1,0,1.5c-0.1,0.4-0.5,0.8-0.9,1c-0.1,0.1-0.3,0.1-0.4,0.1c-0.5,0-0.9,0-1.3-0.3
		c-0.4-0.3-0.7-0.7-0.9-1.3c-0.5-1.3-1.1-2.7-1.7-4c0-0.1-0.1-0.2-0.2-0.4c-0.1-0.2-0.2-0.2-0.4-0.1c-0.2,0.1-0.4,0.2-0.6,0.2
		c-0.7,0.3-1.4,0.6-2.1,0.9C76.2,54.4,76.1,54.5,76,54.8z"/>
	<path clip-path="url(#SVGID_2_)" d="M59.4,30.3c-13.6,0-27.3,0-40.9,0c-0.4,0-0.8,0-1.2,0c-1.7,0.1-3,1.3-3.3,3
		c-0.1,0.5-0.1,0.9-0.1,1.4c0,16.6,0,33.2,0,49.9c0,0.5,0,0.9,0.1,1.4c0.2,1.4,1,2.3,2.3,2.8c0.6,0.2,1.3,0.2,2,0.2
		c27.4,0,54.9,0,82.3,0c0.3,0,0.7,0,1,0c1.7-0.1,3-1.3,3.3-3c0.1-0.5,0.1-0.9,0.1-1.4c0-16.6,0-33.2,0-49.9c0-0.5,0-0.9-0.1-1.4
		c-0.2-1.3-0.9-2.3-2.2-2.7c-0.6-0.2-1.3-0.2-2-0.2C86.9,30.3,73.1,30.3,59.4,30.3 M110.8,33v53.4c-0.1,0.2-0.1,0.3-0.2,0.5
		c-0.5,4.1-4.1,7.7-8.3,8c-0.2,0-0.4,0.1-0.5,0.2H17c-0.5-0.1-1-0.1-1.5-0.3c-3.6-0.9-6-3.1-7.1-6.7c-0.2-0.5-0.3-1.1-0.4-1.6V33
		c0.1-0.2,0.1-0.3,0.2-0.5c0.5-4.1,4.1-7.7,8.3-8c0.2,0,0.4-0.1,0.5-0.2h84.7c0.5,0.1,1,0.1,1.4,0.2c3.8,1,6.3,3.4,7.4,7.2
		C110.6,32.2,110.7,32.6,110.8,33"/>
</g>
<line fill="none" stroke="#ED1C24" stroke-width="4" stroke-linecap="round" x1="27.9" y1="38.2" x2="90.8" y2="81.2"/>
</svg>
