<?xml version="1.0" encoding="utf-8"?>
<!-- Generator: Adobe Illustrator 17.1.0, SVG Export Plug-In . SVG Version: 6.00 Build 0)  -->
<!DOCTYPE svg PUBLIC "-//W3C//DTD SVG 1.1//EN" "http://www.w3.org/Graphics/SVG/1.1/DTD/svg11.dtd">
<svg version="1.1" id="Layer_1" xmlns="http://www.w3.org/2000/svg" xmlns:xlink="http://www.w3.org/1999/xlink" x="0px" y="0px"
	 viewBox="0 0 120 120" enable-background="new 0 0 120 120" xml:space="preserve">
<g>
	<defs>
		<rect id="SVGID_1_" x="3" y="8.8" width="114.4" height="102.2"/>
	</defs>
	<clipPath id="SVGID_2_">
		<use xlink:href="#SVGID_1_"  overflow="visible"/>
	</clipPath>
	<path clip-path="url(#SVGID_2_)" fill="#FFFFFF" d="M61.6,33.3v-17c-0.1-0.1-0.1-0.3-0.1-0.4c-0.2-3.5-3.2-6.5-6.6-6.9
		c-0.1,0-0.3-0.1-0.4-0.1H10.2C9.7,8.9,9.2,9,8.8,9.1C5.8,10,4,12,3.2,15c-0.1,0.4-0.2,0.8-0.2,1.3v87.2c0.1,0.2,0.1,0.3,0.1,0.5
		c0.2,3.5,3.2,6.5,6.6,6.9c0.1,0,0.3,0.1,0.4,0.1h44.2c0.3-0.1,0.6-0.1,1-0.2c3.2-0.9,5.2-2.9,6-6.1c0.1-0.4,0.1-0.8,0.2-1.2V87.3
		h-5c0,6.1,0,11.6,0,15.3c0,0.5,0,1.1-0.2,1.6c-0.4,1-1.2,1.7-2.3,1.8c-0.4,0.1-0.8,0.1-1.2,0.1c-13.8,0-27.5,0-41.3,0
		c-0.4,0-0.8,0-1.2-0.1c-1.4-0.2-2.4-1.3-2.5-2.7c0-0.3,0-0.6,0-0.8C8,79.8,8,40,8,17.3c0-0.5,0-1.1,0.2-1.6
		c0.3-1.1,1.1-1.7,2.3-1.9c0.4-0.1,0.8-0.1,1.2-0.1c13.8,0,27.5,0,41.3,0c0.4,0,0.8,0,1.2,0.1c1.4,0.2,2.4,1.3,2.5,2.7
		c0,0.3,0,0.7,0,1c0,5.3,0,10.6,0,15.9H61.6z"/>
	<path clip-path="url(#SVGID_2_)" fill="#FFFFFF" d="M35.5,16.5c3.5,0-3.4,0,0.1,0c0.4,0,0.8,0,1.1,0.1c0.9,0.2,1.4,1.1,1.4,1.9
		c-0.1,0.9-0.7,1.6-1.5,1.7c-0.3,0.1-0.7,0.1-1.1,0.1c-7.1,0,0.6,0-6.5,0c-0.6,0-1.2,0-1.8-0.4c-0.6-0.4-0.9-1-0.9-1.8
		c0.1-0.8,0.5-1.4,1.3-1.6c0.4-0.1,0.8-0.1,1.1-0.2C32.5,16.5,31.9,16.5,35.5,16.5"/>
	<path clip-path="url(#SVGID_2_)" fill="#FFFFFF" d="M32.3,102.7c1.1,0,2-0.9,2-2s-0.9-2-2-2c-1.1,0-2,0.9-2,2
		S31.2,102.7,32.3,102.7"/>
	<path clip-path="url(#SVGID_2_)" fill="#FFFFFF" d="M74.9,35.6c-11.3,0-22.6,0-33.9,0c-0.3,0-0.7,0-1,0c-1.4,0.1-2.5,1.1-2.7,2.5
		c-0.1,0.4-0.1,0.8-0.1,1.2c0,13.8,0,27.5,0,41.3c0,0.4,0,0.8,0.1,1.2c0.2,1.1,0.8,1.9,1.9,2.3c0.5,0.2,1.1,0.2,1.6,0.2
		c22.7,0,45.5,0,68.2,0c0.3,0,0.6,0,0.8,0c1.4-0.1,2.5-1.1,2.7-2.5c0.1-0.4,0.1-0.8,0.1-1.2c0-13.8,0-27.5,0-41.3
		c0-0.4,0-0.8-0.1-1.2c-0.1-1.1-0.8-1.9-1.8-2.3c-0.5-0.2-1.1-0.2-1.6-0.2C97.6,35.6,86.3,35.6,74.9,35.6 M117.4,37.8V82
		c0,0.1-0.1,0.3-0.1,0.4c-0.4,3.4-3.4,6.4-6.9,6.6c-0.2,0-0.3,0.1-0.4,0.1H39.8c-0.4-0.1-0.9-0.1-1.3-0.2c-3-0.8-5-2.6-5.9-5.6
		c-0.1-0.4-0.2-0.9-0.3-1.3V37.8c0-0.1,0.1-0.3,0.1-0.4c0.4-3.4,3.4-6.4,6.9-6.6c0.2,0,0.3-0.1,0.4-0.1H110c0.4,0.1,0.8,0.1,1.2,0.2
		c3.2,0.8,5.2,2.8,6.1,6C117.3,37.1,117.4,37.5,117.4,37.8"/>
	<path clip-path="url(#SVGID_2_)" fill="#ED1C24" d="M91.7,71.2c3.5,0,7.1,0,10.6,0c0.4,0,0.8,0,1.1,0.1c0.9,0.2,1.4,1.1,1.4,1.9
		c-0.1,0.9-0.7,1.6-1.5,1.7c-0.3,0.1-0.7,0.1-1.1,0.1c-7.1,0-14.1,0-21.2,0c-0.6,0-1.2,0-1.8-0.4c-0.6-0.4-0.9-1-0.9-1.8
		c0.1-0.8,0.5-1.4,1.3-1.6c0.4-0.1,0.8-0.1,1.1-0.2C84.5,71.2,88.1,71.2,91.7,71.2"/>
</g>
<rect x="34.4" y="45" fill="#FFFFFF" width="82" height="10.5"/>
</svg>
