<?xml version="1.0" encoding="utf-8"?>
<!-- Generator: Adobe Illustrator 17.1.0, SVG Export Plug-In . SVG Version: 6.00 Build 0)  -->
<!DOCTYPE svg PUBLIC "-//W3C//DTD SVG 1.1//EN" "http://www.w3.org/Graphics/SVG/1.1/DTD/svg11.dtd">
<svg version="1.1" id="Layer_1" xmlns="http://www.w3.org/2000/svg" xmlns:xlink="http://www.w3.org/1999/xlink" x="0px" y="0px"
	 viewBox="0 0 120 120" enable-background="new 0 0 120 120" xml:space="preserve">
<g>
	<defs>
		<rect id="SVGID_1_" x="10" y="25.2" width="100" height="68.8"/>
	</defs>
	<clipPath id="SVGID_2_">
		<use xlink:href="#SVGID_1_"  overflow="visible"/>
	</clipPath>
	<path clip-path="url(#SVGID_2_)" fill="#FFFFFF" d="M60,31.1c-13.3,0-26.6,0-39.8,0c-0.4,0-0.8,0-1.2,0c-1.6,0.1-2.9,1.3-3.2,2.9
		c-0.1,0.4-0.1,0.9-0.1,1.4c0,16.2,0,32.4,0,48.5c0,0.5,0,0.9,0.1,1.4c0.2,1.3,0.9,2.3,2.2,2.7c0.6,0.2,1.3,0.2,1.9,0.2
		c26.7,0,53.4,0,80.1,0c0.3,0,0.7,0,1,0c1.6-0.1,2.9-1.3,3.2-2.9c0.1-0.4,0.1-0.9,0.1-1.4c0-16.2,0-32.4,0-48.5c0-0.5,0-0.9-0.1-1.4
		c-0.2-1.3-0.9-2.2-2.1-2.7c-0.6-0.2-1.3-0.2-1.9-0.2C86.8,31.1,73.4,31.1,60,31.1 M110,33.6v52c-0.1,0.1-0.1,0.3-0.2,0.4
		c-0.5,4-4,7.5-8.1,7.8c-0.2,0-0.4,0.1-0.5,0.2H18.8c-0.5-0.1-1-0.1-1.5-0.3c-3.5-0.9-5.9-3-6.9-6.5c-0.2-0.5-0.3-1.1-0.4-1.6v-52
		c0.1-0.1,0.1-0.3,0.2-0.4c0.5-4,4-7.5,8.1-7.8c0.2,0,0.4-0.1,0.5-0.2h82.4c0.5,0.1,0.9,0.1,1.4,0.2c3.7,1,6.2,3.3,7.2,7
		C109.9,32.9,109.9,33.3,110,33.6"/>
	<path clip-path="url(#SVGID_2_)" fill="#ED1C24" d="M48.7,48.8c0.1-3.3-2.9-6.1-6.1-6c-2.8,0-6,2.2-6,6.1c0,3.9,3.1,6.1,6.1,6.1
		C46.1,54.9,48.8,52.1,48.7,48.8 M42.7,60.7c-6.7,0-11.8-5.6-11.8-11.9C30.9,43,35.5,37,42.7,37c6.8,0,11.8,5.5,11.8,11.9
		C54.4,55.7,48.9,60.7,42.7,60.7"/>
	<path clip-path="url(#SVGID_2_)" fill="#ED1C24" d="M42.7,68.6c-1.5,0-3,0-4.5,0c-2.5,0-5,1.7-5.6,4.3c-0.1,0.6-0.2,1.3-0.2,1.9
		c0,1.2,0,2.5,0,3.7c0,0.4,0,0.8-0.1,1.2c-0.2,1.5-1.4,2.6-2.8,2.5c-1.7-0.1-2.8-1.3-2.8-2.8c-0.1-1,0-2.1,0-3.1
		c0-1.2,0-2.4,0.2-3.6c0.5-4.3,3.9-8.4,8.7-9.5c1-0.2,2.1-0.3,3.2-0.3c2.7,0,5.4,0,8.1,0c3.6,0,6.6,1.2,9,3.8c1.9,2.1,2.9,4.5,3,7.3
		c0.1,1.8,0.1,3.5,0,5.3c0,1.6-1,2.7-2.5,2.9c-1.4,0.2-2.8-0.7-3.1-2c-0.1-0.5-0.2-1-0.2-1.4c0-1.6,0-3.1,0-4.7
		c0-2.7-2.5-5.3-5.5-5.4C45.9,68.6,44.3,68.6,42.7,68.6L42.7,68.6z"/>
	<path clip-path="url(#SVGID_2_)" fill="#ED1C24" d="M79.6,46.3c-4.2,0-8.4,0-12.6,0c-0.4,0-0.9,0-1.3-0.2c-1-0.3-1.7-1.3-1.6-2.2
		c0.2-1.3,0.9-2,1.8-2.1c0.4-0.1,0.8-0.1,1.3-0.1c8.3,0,16.6,0,24.9,0c0.4,0,0.8,0.1,1.3,0.1c1,0.2,1.8,1.1,1.8,2.1
		c0,1-0.6,1.9-1.6,2.2c-0.4,0.1-0.9,0.2-1.3,0.2C88,46.3,83.8,46.3,79.6,46.3"/>
	<path clip-path="url(#SVGID_2_)" fill="#FFFFFF" d="M79.7,72.9c4.2,0,8.3,0,12.5,0c0.4,0,0.9,0,1.3,0.2c1,0.3,1.7,1.2,1.6,2.3
		c-0.1,1-0.8,1.8-1.8,2c-0.4,0.1-0.8,0.1-1.3,0.1c-8.3,0-16.6,0-24.9,0c-0.7,0-1.4,0-2.1-0.4c-0.7-0.5-1.1-1.2-1-2.1
		c0.1-0.9,0.6-1.7,1.5-1.9c0.4-0.1,0.9-0.2,1.3-0.2C71.3,72.9,75.5,72.9,79.7,72.9"/>
	<path clip-path="url(#SVGID_2_)" fill="#FFFFFF" d="M84.9,68.6c-2.5,0-5,0-7.5,0c-0.7,0-1.4-0.1-1.9-0.6c-0.7-0.6-1-1.4-0.8-2.3
		c0.2-0.9,0.7-1.4,1.6-1.6c0.4-0.1,0.9-0.2,1.3-0.2c4.8,0,9.7,0,14.5,0c0.4,0,0.8,0.1,1.3,0.1c1,0.2,1.7,1.1,1.8,2.2
		c0,1-0.6,1.9-1.6,2.2c-0.4,0.1-0.9,0.2-1.3,0.2C89.8,68.6,87.3,68.6,84.9,68.6"/>
	<path clip-path="url(#SVGID_2_)" fill="#FFFFFF" d="M84.9,59.6c-2.5,0-5.1,0-7.6,0c-0.6,0-1.2-0.1-1.7-0.4
		c-0.8-0.5-1.1-1.5-0.9-2.4c0.2-0.8,0.9-1.5,1.8-1.7c0.3,0,0.6-0.1,1-0.1c4.9,0,9.9,0,14.8,0c0.3,0,0.5,0,0.8,0c1.1,0.1,2,1,2.1,2.1
		c0.1,1.1-0.8,2.2-1.9,2.4c-0.3,0.1-0.6,0-1,0C89.8,59.6,87.3,59.6,84.9,59.6"/>
</g>
</svg>
