<?xml version="1.0" encoding="utf-8"?>
<!-- Generator: Adobe Illustrator 17.1.0, SVG Export Plug-In . SVG Version: 6.00 Build 0)  -->
<!DOCTYPE svg PUBLIC "-//W3C//DTD SVG 1.1//EN" "http://www.w3.org/Graphics/SVG/1.1/DTD/svg11.dtd">
<svg version="1.1" id="Layer_1" xmlns="http://www.w3.org/2000/svg" xmlns:xlink="http://www.w3.org/1999/xlink" x="0px" y="0px"
	 viewBox="0 0 120 150" enable-background="new 0 0 120 150" xml:space="preserve">
<g>
	<defs>
		<rect id="SVGID_1_" x="24" y="6.7" width="70.7" height="135.3"/>
	</defs>
	<clipPath id="SVGID_2_">
		<use xlink:href="#SVGID_1_"  overflow="visible"/>
	</clipPath>
	<path clip-path="url(#SVGID_2_)" fill="#FFFFFF" d="M30,58.1c0,13.6,0,27.3,0,40.9c0,0.4,0,0.8,0,1.2c0.1,1.7,1.3,3,3,3.3
		c0.5,0.1,0.9,0.1,1.4,0.1c16.6,0,33.2,0,49.9,0c0.5,0,0.9,0,1.4-0.1c1.4-0.2,2.3-1,2.8-2.3c0.2-0.6,0.2-1.3,0.2-2
		c0-27.4,0-54.9,0-82.3c0-0.3,0-0.7,0-1c-0.1-1.7-1.3-3-3-3.3c-0.5-0.1-0.9-0.1-1.4-0.1c-16.6,0-33.2,0-49.9,0c-0.5,0-0.9,0-1.4,0.1
		c-1.3,0.2-2.3,0.9-2.7,2.2c-0.2,0.6-0.2,1.3-0.2,2C30,30.6,30,44.4,30,58.1 M32.6,6.7H86c0.2,0.1,0.3,0.1,0.5,0.2
		c4.1,0.5,7.7,4.1,8,8.3c0,0.2,0.1,0.4,0.2,0.5v84.7c-0.1,0.5-0.1,1-0.3,1.5c-0.9,3.6-3.1,6-6.7,7.1c-0.5,0.2-1.1,0.3-1.6,0.4H32.6
		c-0.2-0.1-0.3-0.1-0.5-0.2c-4.1-0.5-7.7-4.1-8-8.3c0-0.2-0.1-0.4-0.2-0.5V15.8c0.1-0.5,0.1-1,0.2-1.4c1-3.8,3.4-6.3,7.2-7.4
		C31.9,6.9,32.2,6.8,32.6,6.7"/>
	<path clip-path="url(#SVGID_2_)" fill="#FFFFFF" d="M33.2,123.1c0-5,0-10.1,0-15.1c0-0.5,0.1-1.1,0.2-1.6c0.3-1.2,1.5-2,2.8-1.9
		c1.2,0.1,2.2,0.9,2.5,2.2c0.1,0.5,0.2,1,0.2,1.5c0,10.1,0,20.1,0,30.1c0,0.9,0,1.7-0.5,2.5c-0.6,0.9-1.5,1.3-2.5,1.2
		c-1.1-0.1-2-0.7-2.3-1.9c-0.1-0.5-0.2-1.1-0.2-1.6C33.2,133.4,33.2,128.3,33.2,123.1"/>
	<path clip-path="url(#SVGID_2_)" fill="#FFFFFF" d="M79.8,123.1c0-5,0-10.1,0-15.1c0-0.5,0.1-1.1,0.2-1.6c0.3-1.2,1.5-2,2.8-1.9
		c1.2,0.1,2.2,0.9,2.5,2.2c0.1,0.5,0.2,1,0.2,1.5c0,10.1,0,20.1,0,30.1c0,0.9,0,1.7-0.5,2.5c-0.6,0.9-1.5,1.3-2.5,1.2
		c-1.1-0.1-2-0.7-2.3-1.9c-0.1-0.5-0.2-1.1-0.2-1.6C79.8,133.4,79.8,128.3,79.8,123.1"/>
</g>
<rect x="36.5" y="20.3" fill="#ED1C24" width="45.1" height="45.1"/>
</svg>
